<?xml version="1.0" encoding="UTF-8"?>
<svg width="1024px" height="1024px" viewBox="0 0 1024 1024" version="1.1" xmlns="http://www.w3.org/2000/svg" xmlns:xlink="http://www.w3.org/1999/xlink">
    <title>Group 2</title>
    <g id="Page-1" stroke="none" stroke-width="1" fill="none" fill-rule="evenodd">
        <g id="Group-2">
            <rect id="Rectangle" fill="#FFFFFF" x="0" y="0" width="1024" height="1024"></rect>
            <g id="noun_aviator-glasses_804497" transform="translate(130.000000, 368.000000)" fill="#212383" fill-rule="nonzero" opacity="0.58875093">
                <path d="M582.547431,0 C544.783118,0 515.713799,4.05905524 493.283981,10.5260246 L273.73322,10.5260246 C251.312002,4.05905524 222.234083,0 184.46977,0 C76.2338589,0 21.3547689,36.9184833 21.3547689,109.981478 C21.3547689,112.638783 21.3547689,115.313287 21.3633693,118.004991 L0,118.004991 L0,131.523709 L21.5009755,131.523709 C22.3610146,176.276513 28.4414904,223.574826 71.9938665,258.558379 C94.6558947,276.763929 118.883194,286 143.987733,286 L143.987733,286 C172.506627,286 202.917607,274.037827 234.386434,250.440268 C295.750219,204.41471 347.58477,130.001564 347.58477,87.931864 C347.58477,86.6935081 347.541769,85.3691554 347.455765,83.9932044 C350.087484,80.2867366 352.091375,73.0027964 352.091375,58.8047028 C352.091375,56.388189 361.293792,51.8475509 383.5,51.8475509 C405.697607,51.8475509 414.908625,56.3795893 414.908625,58.8047028 C414.908625,72.9941967 416.912516,80.2867366 419.552836,83.9932044 C419.466832,85.3691554 419.41523,86.6935081 419.41523,87.931864 C419.41523,130.001564 471.249781,204.41471 532.613566,250.440268 C564.082393,274.037827 594.493373,286 623.012267,286 C648.116806,286 672.335505,276.763929 695.006134,258.558379 C738.515508,223.626425 744.638985,176.37111 745.490424,131.523709 L767,131.523709 L767,118.004991 L745.636631,118.004991 C745.645231,115.23589 745.645231,112.475389 745.645231,109.740686 C745.653831,36.9184833 690.783342,0 582.547431,0 Z M383.5,39.0805386 C351.049986,39.0805386 340.940625,47.4580705 338.861823,55.7333333 C332.858312,45.1314518 322.878337,34.2057185 306.506692,24.9333333 L460.493308,24.9333333 C444.121663,34.2057185 434.141688,45.1314518 428.138177,55.7333333 C426.068001,47.4580705 415.95864,39.0805386 383.5,39.0805386 Z" id="Shape"></path>
            </g>
        </g>
    </g>
</svg>