<?xml version="1.0" encoding="UTF-8"?>
<svg width="1024px" height="1024px" viewBox="0 0 1024 1024" version="1.1" xmlns="http://www.w3.org/2000/svg" xmlns:xlink="http://www.w3.org/1999/xlink">
    <title>Group 2</title>
    <g id="Page-1" stroke="none" stroke-width="1" fill="none" fill-rule="evenodd">
        <g id="Group-2">
            <rect id="Rectangle" fill="#FFFFFF" x="0" y="0" width="1024" height="1024"></rect>
            <g id="dalmatian" transform="translate(92.000000, 215.000000)" fill="#000000" fill-rule="nonzero">
                <path d="M809.381638,170.641307 L637.451887,39.5550204 C618.120672,24.8179439 591.991301,23.084994 570.883913,35.143875 L554.56904,44.4632948 C543.132514,35.991095 530.846437,28.5499129 517.822916,22.3077922 C455.756684,-7.43593072 384.566104,-7.43593072 322.503375,22.3077922 C308.162612,29.1800765 294.711688,37.4999868 282.311754,47.0592188 L271.155492,39.4114831 C249.608439,24.6393976 221.172145,25.3553335 200.39757,41.1969467 L30.6188452,170.643057 C-2.0249135,195.531019 -9.71290755,241.743018 13.1128501,275.848874 L165.182388,503.061369 C168.128665,507.462011 173.061312,510.057935 178.282983,510.057935 C178.859276,510.057935 179.43732,510.026427 180.017117,509.963411 C185.862374,509.317493 190.863336,505.475245 192.988088,499.994572 L221.137112,427.369966 C224.589615,430.191698 228.402958,432.614327 232.531599,434.529325 C249.541877,442.422124 262.481319,456.453767 268.965929,474.042334 L281.337836,507.600297 C287.438835,524.147344 299.787971,536.818884 314.999304,543.554633 C320.499487,573.350869 346.6744,596 378.058722,596 L462.267568,596 C493.667655,596 519.851327,573.328113 525.333993,543.509121 C540.533064,536.769871 552.890959,524.138591 558.988454,507.600297 L571.360362,474.042334 C577.844972,456.455518 590.782662,442.423874 607.794692,434.529325 C611.82524,432.659839 615.558007,430.31248 618.943948,427.57827 L647.012395,499.994572 C649.137147,505.473495 654.136358,509.317493 659.983367,509.963411 C660.563163,510.028178 661.141208,510.057935 661.717501,510.057935 C666.939171,510.057935 671.873571,507.463762 674.818095,503.061369 L826.887634,275.848874 C849.713391,241.743018 842.023646,195.531019 809.381638,170.641307 Z M174.53445,460.360782 L39.3192933,258.330325 C25.728237,238.023302 30.3070515,210.509658 49.7416138,195.692061 L177.83456,98.028953 C180.724783,101.333811 184.962026,103.430856 189.698489,103.430856 C198.405943,103.430856 205.463343,96.3782744 205.463343,87.6767651 L205.463343,84.525947 C205.463343,82.2100957 204.95011,80.0185266 204.053265,78.0387626 L219.518587,66.2459506 C229.443439,58.6804863 243.023985,58.3391476 253.316683,65.3934793 L258.103944,68.6755815 C232.659469,94.8921385 213.6418,127.163518 203.258015,162.942808 C185.713484,223.405257 182.460669,288.088051 193.855155,349.999877 L201.406521,391.03053 L194.084622,409.921435 C191.416858,407.854148 188.078212,406.611326 184.441786,406.611326 C175.734331,406.611326 168.676931,413.663907 168.676931,422.365416 L168.676931,425.516234 C168.676931,433.389779 174.462633,439.894468 182.012246,441.063771 L174.53445,460.360782 Z M462.265817,564.488318 L378.056971,564.488318 C366.059916,564.488318 355.583295,557.962624 349.920209,548.294863 L380.663427,544.648667 C396.251364,542.800187 410.140201,535.276733 420.161394,524.175351 C430.184338,535.274983 444.073175,542.800187 459.661112,544.648667 L490.402579,548.293113 C484.739493,557.962624 474.262871,564.488318 462.265817,564.488318 Z M429.998663,461.055712 L427.760054,466.079516 C422.760843,466.711431 417.561944,466.711431 412.564485,466.079516 L410.324124,461.053962 C404.531416,448.063839 391.549934,440.438859 377.986905,441.123287 C377.788968,440.022251 377.690876,438.908962 377.690876,437.78692 C377.690876,419.009795 410.872391,417.294349 417.563696,417.14206 C419.304837,417.098299 420.984669,417.096548 422.802883,417.14206 C429.4539,417.294349 462.635415,419.009795 462.635415,437.78692 C462.635415,438.908962 462.535571,440.0205 462.339386,441.123287 C448.760591,440.428356 435.789619,448.06734 429.998663,461.055712 Z M495.909768,517.217294 L463.376363,513.359293 C452.626484,512.084962 443.498633,505.41748 438.798955,496.115565 C440.121451,495.838993 441.443947,495.569423 442.748927,495.235087 C447.408317,494.037776 451.265452,490.78018 453.223797,486.38829 L458.801052,473.876041 C459.249475,472.87128 460.379289,472.3724 461.41977,472.71899 L466.189514,474.292649 C472.703902,476.442207 479.861146,474.135108 483.889942,468.586167 C490.611025,459.331514 494.165124,448.681749 494.165124,437.78692 C494.165124,407.097952 466.438248,386.629888 423.568354,385.642631 C421.291208,385.584866 419.001801,385.584866 416.798225,385.642631 C373.888042,386.629888 346.161167,407.097952 346.161167,437.78692 C346.161167,448.679999 349.713514,459.329764 356.434597,468.586167 C360.465145,474.135108 367.622389,476.442207 374.136777,474.292649 L378.904769,472.71899 C379.954008,472.375901 381.076816,472.87303 381.525239,473.876041 L387.102494,486.386539 C389.060839,490.776679 392.917973,494.036025 397.575612,495.233336 C398.87884,495.567673 400.203088,495.838993 401.525584,496.113815 C396.827657,505.41573 387.699807,512.083211 376.949927,513.357542 L344.416523,517.215544 C331.293157,518.768197 318.886217,512.128723 312.788721,500.782277 L313.718848,500.782277 C322.426302,500.782277 329.483702,493.729696 329.483702,485.028186 C329.483702,476.326677 322.426302,469.274096 313.718848,469.274096 L310.565877,469.274096 C309.105,469.274096 307.698425,469.487651 306.356661,469.858748 C306.516061,460.350279 308.507687,450.87857 312.349057,441.924995 L351.999418,349.471239 C361.376003,327.609813 380.843847,311.477624 404.077739,306.319035 C414.603407,303.980428 425.726387,303.980428 436.253807,306.319035 C459.487699,311.477624 478.955543,327.609813 488.330376,349.471239 L518.703996,420.294629 C510.304832,420.642969 503.599514,427.536259 503.599514,436.01546 C503.599514,444.71697 510.656914,451.769551 519.364368,451.769551 L522.517339,451.769551 C525.528426,451.769551 528.332819,450.910078 530.725573,449.446698 C535.460285,464.862951 535.053902,481.355733 529.41709,496.670459 L529.404829,496.703718 C524.307526,510.516554 510.534298,518.946743 495.909768,517.217294 Z M594.51543,405.947903 C580.381362,412.505106 568.207391,422.004823 558.608346,433.710112 C558.075844,432.306247 557.552101,430.900632 556.958291,429.514272 L517.30793,337.060517 C503.94634,305.905928 476.201948,282.915458 443.090499,275.561799 C428.091115,272.230684 412.233424,272.230684 397.23404,275.561799 C364.122591,282.913708 336.376447,305.904177 323.014857,337.060517 L283.364496,429.514272 C282.77419,430.89188 282.22242,432.281741 281.69167,433.675103 C272.09788,421.983817 259.929164,412.498104 245.807358,405.946153 C240.893978,403.667061 237.024582,399.69528 234.838522,394.858774 C234.973399,394.860525 235.106525,394.87978 235.241402,394.87978 C248.592482,394.87978 259.452715,384.026962 259.452715,370.684997 L259.452715,361.307813 C259.452715,347.967599 248.592482,337.114781 235.241402,337.114781 C231.228371,337.114781 227.45006,338.11079 224.114918,339.84549 C214.556161,284.079511 217.773943,226.053694 233.542301,171.716086 C243.908569,135.99281 264.275009,104.33234 291.686588,80.1655648 C294.576811,83.4739238 298.815805,85.5744692 303.555771,85.5744692 C312.263226,85.5744692 319.320626,78.521888 319.320626,69.8203787 L319.320626,66.6695606 C319.320626,64.5077493 318.882713,62.4474643 318.094471,60.5727276 C323.902944,56.9877967 329.923366,53.6934414 336.136471,50.7159183 C389.533785,25.1242735 450.787251,25.1242735 504.186317,50.7159183 C553.999754,74.5903672 591.393988,118.693068 606.780486,171.716086 C622.96924,227.497819 625.969818,287.176065 615.456411,344.296896 L607.099287,389.712438 C605.789052,396.831536 601.084119,402.900362 594.51543,405.947903 Z M800.679439,258.330325 L730.222801,363.602659 L728.28022,360.714409 C719.653341,347.883577 702.187634,344.457938 689.348036,353.080677 C676.508438,361.701665 673.08221,379.155447 681.709088,391.986278 L689.325265,403.311719 C691.637443,406.749612 694.632766,409.550339 698.076511,411.63338 L665.464282,460.359031 L638.811168,391.595927 L646.467632,349.996376 C657.862118,288.0828 654.609303,223.400005 637.064772,162.939307 C626.365691,126.072985 606.507229,92.9228772 579.887396,66.2914624 L586.531407,62.4964771 C596.615659,56.7374818 609.096168,57.5654467 618.327367,64.6040243 L700.872145,127.539865 C698.651052,126.867691 696.300337,126.496595 693.862039,126.496595 C680.512711,126.496595 669.652478,137.349412 669.652478,150.691377 L669.652478,160.068561 C669.652478,172.5423 679.149927,182.838474 691.297623,184.123307 L691.297623,192.702285 C691.297623,206.042498 702.157856,216.895316 715.507185,216.895316 C728.856513,216.895316 739.716746,206.042498 739.716746,192.702285 L739.716746,183.3251 C739.716746,170.851361 730.219297,160.555188 718.071601,159.270354 L718.071601,150.691377 C718.071601,145.942394 716.675536,141.520746 714.300298,137.778274 L790.255367,195.690311 C809.691681,210.509658 814.270495,238.025053 800.679439,258.330325 Z" id="Shape"></path>
                <path d="M118.926017,250.040457 C120.377815,246.905893 121.214592,243.423043 121.214592,239.736148 L121.214592,230.313105 C121.214592,216.905893 110.473362,206 97.2703128,206 C84.0672631,206 73.3260338,216.905893 73.3260338,230.313105 L73.3260338,233.757256 C61.417129,242.633245 58.383598,259.584872 66.6993884,272.149516 L74.2321085,283.530343 C78.3657493,289.776605 84.647636,294.014072 91.9204876,295.4635 C93.7205098,295.822339 95.5257293,296 97.3188216,296 C102.774327,296 108.10856,294.360598 112.737683,291.201407 C125.436588,282.538259 128.825272,264.99912 120.291193,252.105541 L118.926017,250.040457 Z" id="Path"></path>
                <path d="M381.090909,342 L377.909091,342 C369.12197,342 362,348.938833 362,357.5 C362,366.061167 369.12197,373 377.909091,373 L381.090909,373 C389.87803,373 397,366.061167 397,357.5 C397,348.938833 389.876263,342 381.090909,342 Z" id="Path"></path>
                <path d="M174,205.090909 L174,201.909091 C174,193.12197 167.061167,186 158.5,186 C149.938833,186 143,193.12197 143,201.909091 L143,205.090909 C143,213.87803 149.938833,221 158.5,221 C167.061167,221 174,213.87803 174,205.090909 Z" id="Path"></path>
                <path d="M671.5,254 C662.938833,254 656,261.12197 656,269.909091 L656,273.090909 C656,281.87803 662.938833,289 671.5,289 C680.061167,289 687,281.87803 687,273.090909 L687,269.909091 C687,261.12197 680.061167,254 671.5,254 Z" id="Path"></path>
            </g>
        </g>
    </g>
</svg>