<?xml version="1.0" encoding="UTF-8"?>
<svg width="1024px" height="1024px" viewBox="0 0 1024 1024" version="1.1" xmlns="http://www.w3.org/2000/svg" xmlns:xlink="http://www.w3.org/1999/xlink">
    <title>Group 2</title>
    <g id="Page-1" stroke="none" stroke-width="1" fill="none" fill-rule="evenodd">
        <g id="Group-2">
            <rect id="Rectangle" fill="#FFFFFF" x="0" y="0" width="1024" height="1024"></rect>
            <g id="Group" transform="translate(67.000000, 356.000000)" fill="#000000" fill-rule="nonzero">
                <g id="sunflower-copy" transform="translate(696.000000, 93.000000)">
                    <path d="M171.310089,78.2853344 C180.056458,67.0927337 182.914092,53.9286661 183.071105,53.1787005 L184.125336,48.1474941 L179.245972,46.5457713 C178.519226,46.3062613 165.72641,42.2106406 151.684967,44.1851007 C153.657349,30.1019138 149.540619,17.2537005 149.323792,16.5920539 L147.723755,11.7075472 L142.697845,12.7628883 C142.015961,12.9065943 128.79248,15.7717323 117.580261,24.5662396 C112.204437,11.761437 102.204956,3.44145915 101.629242,2.97142062 L98,0 L94.3692626,2.97142062 C93.7950439,3.44145915 83.7940673,11.761437 78.4182433,24.5662396 C67.2075196,15.7732292 53.9825439,12.9065943 53.3006591,12.7628883 L48.2747499,11.7075472 L46.674713,16.5920539 C46.4578857,17.2537005 42.3426514,30.1019138 44.315033,44.1851007 C30.27359,42.2106406 17.4807738,46.3062613 16.752533,46.5457713 L11.8731689,48.1474941 L12.9273986,53.1787005 C13.0844118,53.9301634 15.9420471,67.0927337 24.689911,78.2853344 C11.7131652,83.674309 3.37353515,93.7771398 2.94735727,94.3010676 L0,97.9251529 L2.94735727,101.549239 C3.37353515,102.073166 11.7146604,112.175997 24.689911,117.564971 C15.9435426,128.757573 13.0844118,141.920143 12.9273986,142.671605 L11.8746642,147.702812 L16.7540283,149.304536 C17.34021,149.49764 25.7845155,152.202606 36.4030762,152.202606 C38.9421995,152.202606 41.6084289,152.040937 44.3210145,151.660714 C42.3381652,165.83222 46.4474181,178.93192 46.6642458,179.605542 L48.2433473,184.530466 L53.3006591,183.469137 C53.9825439,183.326928 67.2149962,180.457299 78.4287109,171.658301 C83.813507,184.413704 93.8234559,192.628896 94.3991699,193.094444 L98,196 L101.599335,193.094444 C102.175049,192.628896 112.184998,184.413704 117.571289,171.658301 C128.785004,180.457299 142.017455,183.326928 142.699341,183.469137 L147.755157,184.530466 L149.335754,179.605542 C149.551087,178.93192 153.661835,165.83222 151.678986,151.660714 C154.391571,152.040937 157.057801,152.202606 159.596924,152.202606 C170.213989,152.202606 178.65979,149.496143 179.245972,149.304536 L184.125336,147.702812 L183.072602,142.671605 C182.915588,141.920143 180.056458,128.757573 171.310089,117.564971 C184.28534,112.175997 192.626465,102.073166 193.052643,101.549239 L196,97.9251529 L193.052643,94.2995708 C192.626465,93.7756425 184.28534,83.6728121 171.310089,78.2853344 Z M170.273803,56.1665876 C163.232148,76.3153648 151.330567,83.4048603 135.393006,83.3120504 C133.90213,79.5023448 131.846008,75.97556 129.32782,72.8319918 C137.124633,59.1155544 149.021728,52.1802433 170.273803,56.1665876 Z M126.672058,97.9251529 C126.672058,113.750775 113.810455,126.627431 98,126.627431 C82.1895447,126.627431 69.3279417,113.750775 69.3279417,97.9251529 C69.3279417,82.098034 82.1895447,69.2213784 98,69.2213784 C113.810455,69.2213784 126.672058,82.098034 126.672058,97.9251529 L126.672058,97.9251529 Z M139.71759,25.5901447 C140.731445,31.0150458 141.609222,39.6853072 139.22113,47.7672721 C131.398896,51.3943512 125.366608,57.4255118 120.73996,64.8293643 C119.006836,63.6333113 117.178009,62.5689891 115.265442,61.6528631 C119.31189,54.0184828 121.560913,45.7613757 120.780334,37.1210536 C126.582336,31.006064 134.519714,27.423893 139.71759,25.5901447 L139.71759,25.5901447 Z M98.0119629,15.3945041 C111.667603,30.1079015 112.307617,44.0803154 104.056213,58.1979319 C102.080841,57.8970472 100.059112,57.7413657 98,57.7413657 C95.9423828,57.7413657 93.919159,57.8970472 91.9437868,58.1979319 C83.6804199,44.0608549 84.3563232,30.1797546 98.0119629,15.3945041 Z M56.2824099,25.5901447 C61.4832763,27.423893 69.419159,31.006064 75.21817,37.1210536 C74.4390869,45.7598788 76.6866151,54.0184828 80.7345583,61.6528631 C78.8204958,62.5689891 76.9916687,63.6333113 75.2600402,64.8293643 C70.6318968,57.424015 64.6011047,51.3943512 56.7788694,47.7672721 C54.3907775,39.6838103 55.2685547,31.0120517 56.2824099,25.5901447 Z M66.67218,72.8319918 C64.1539919,75.97556 62.0978699,79.5023448 60.6069945,83.3120504 C44.7815858,83.4033634 32.8829958,76.4740404 25.7366639,56.1471275 C46.7106018,52.1727587 58.7961122,58.9778363 66.67218,72.8319918 Z M34.0015257,87.2684556 C41.0446778,92.2323003 49.2706603,94.4462704 57.9826356,94.7576334 C57.9003906,95.8024959 57.8585205,96.8593335 57.8585205,97.9251529 C57.8585205,98.9909724 57.9003906,100.046313 57.9826356,101.091176 C49.2706603,101.404035 41.0446778,103.616509 34.0015257,108.580353 C25.8697509,106.599905 19.2019348,101.46541 15.3738097,97.9251529 C19.2049257,94.381902 25.8712462,89.2489039 34.0015257,87.2684556 L34.0015257,87.2684556 Z M25.7261962,139.682222 C32.7678527,119.534941 44.6679383,112.445446 60.6069945,112.536759 C62.0978699,116.347961 64.1539919,119.873249 66.67218,123.016818 C58.873871,136.736248 46.9767762,143.668566 25.7261962,139.682222 Z M56.3018494,170.634395 C55.2760314,165.106206 54.3743284,156.238348 56.7803651,148.08004 C64.6011047,144.454458 70.6333924,138.423297 75.2600402,131.019445 C77.0036317,132.222982 78.8444216,133.293293 80.770447,134.212412 C76.761383,141.935112 74.436096,150.443704 75.2196657,159.110972 C69.4251405,165.218476 61.4997254,168.800648 56.3018494,170.634395 L56.3018494,170.634395 Z M97.9865418,180.692318 C84.4026795,166.222921 83.6385498,152.066385 91.957245,137.653871 C93.928131,137.953259 95.946869,138.10894 98,138.10894 C100.054627,138.10894 102.071869,137.953259 104.042755,137.653871 C112.591736,152.46457 111.278809,166.465425 97.9865418,180.692318 L97.9865418,180.692318 Z M139.698151,170.634395 C134.497285,168.799151 126.573364,165.216979 120.78183,159.110972 C121.565399,150.442208 119.238617,141.935112 115.229553,134.213909 C117.155578,133.293293 118.997864,132.222982 120.73996,131.019445 C125.366608,138.423297 131.398896,144.454458 139.22113,148.081537 C141.625672,156.241343 140.722473,165.109199 139.698151,170.634395 Z M129.32782,123.016818 C131.846008,119.874746 133.90213,116.347961 135.393006,112.538256 C151.218415,112.445446 163.117005,119.374769 170.263336,139.701682 C149.289398,143.67605 137.203888,136.870973 129.32782,123.016818 Z M161.998474,108.580353 C154.953827,103.616509 146.72934,101.404035 138.017364,101.091176 C138.098114,100.046313 138.141479,98.9894755 138.141479,97.9236561 C138.141479,96.8578367 138.098114,95.8024959 138.017364,94.7576334 C146.72934,94.4462704 154.955322,92.2323003 161.998474,87.2684556 C170.130249,89.2504011 176.79657,94.3833993 180.62619,97.9236561 C176.795075,101.468404 170.128754,106.599905 161.998474,108.580353 L161.998474,108.580353 Z" id="Shape"></path>
                    <polygon id="Path" points="92.4528302 81.3584906 103.54717 81.3584906 103.54717 92.4528302 92.4528302 92.4528302"></polygon>
                    <polygon id="Path" points="92.4528302 103.54717 103.54717 103.54717 103.54717 114.641509 92.4528302 114.641509"></polygon>
                    <polygon id="Path" points="81.3584906 92.4528302 92.4528302 92.4528302 92.4528302 103.54717 81.3584906 103.54717"></polygon>
                    <polygon id="Path" points="103.54717 92.4528302 114.641509 92.4528302 114.641509 103.54717 103.54717 103.54717"></polygon>
                </g>
                <g id="sunflower-copy-2" transform="translate(0.000000, 93.000000)">
                    <path d="M171.310089,78.2853344 C180.056458,67.0927337 182.914092,53.9286661 183.071105,53.1787005 L184.125336,48.1474941 L179.245972,46.5457713 C178.519226,46.3062613 165.72641,42.2106406 151.684967,44.1851007 C153.657349,30.1019138 149.540619,17.2537005 149.323792,16.5920539 L147.723755,11.7075472 L142.697845,12.7628883 C142.015961,12.9065943 128.79248,15.7717323 117.580261,24.5662396 C112.204437,11.761437 102.204956,3.44145915 101.629242,2.97142062 L98,0 L94.3692626,2.97142062 C93.7950439,3.44145915 83.7940673,11.761437 78.4182433,24.5662396 C67.2075196,15.7732292 53.9825439,12.9065943 53.3006591,12.7628883 L48.2747499,11.7075472 L46.674713,16.5920539 C46.4578857,17.2537005 42.3426514,30.1019138 44.315033,44.1851007 C30.27359,42.2106406 17.4807738,46.3062613 16.752533,46.5457713 L11.8731689,48.1474941 L12.9273986,53.1787005 C13.0844118,53.9301634 15.9420471,67.0927337 24.689911,78.2853344 C11.7131652,83.674309 3.37353515,93.7771398 2.94735727,94.3010676 L0,97.9251529 L2.94735727,101.549239 C3.37353515,102.073166 11.7146604,112.175997 24.689911,117.564971 C15.9435426,128.757573 13.0844118,141.920143 12.9273986,142.671605 L11.8746642,147.702812 L16.7540283,149.304536 C17.34021,149.49764 25.7845155,152.202606 36.4030762,152.202606 C38.9421995,152.202606 41.6084289,152.040937 44.3210145,151.660714 C42.3381652,165.83222 46.4474181,178.93192 46.6642458,179.605542 L48.2433473,184.530466 L53.3006591,183.469137 C53.9825439,183.326928 67.2149962,180.457299 78.4287109,171.658301 C83.813507,184.413704 93.8234559,192.628896 94.3991699,193.094444 L98,196 L101.599335,193.094444 C102.175049,192.628896 112.184998,184.413704 117.571289,171.658301 C128.785004,180.457299 142.017455,183.326928 142.699341,183.469137 L147.755157,184.530466 L149.335754,179.605542 C149.551087,178.93192 153.661835,165.83222 151.678986,151.660714 C154.391571,152.040937 157.057801,152.202606 159.596924,152.202606 C170.213989,152.202606 178.65979,149.496143 179.245972,149.304536 L184.125336,147.702812 L183.072602,142.671605 C182.915588,141.920143 180.056458,128.757573 171.310089,117.564971 C184.28534,112.175997 192.626465,102.073166 193.052643,101.549239 L196,97.9251529 L193.052643,94.2995708 C192.626465,93.7756425 184.28534,83.6728121 171.310089,78.2853344 Z M170.273803,56.1665876 C163.232148,76.3153648 151.330567,83.4048603 135.393006,83.3120504 C133.90213,79.5023448 131.846008,75.97556 129.32782,72.8319918 C137.124633,59.1155544 149.021728,52.1802433 170.273803,56.1665876 Z M126.672058,97.9251529 C126.672058,113.750775 113.810455,126.627431 98,126.627431 C82.1895447,126.627431 69.3279417,113.750775 69.3279417,97.9251529 C69.3279417,82.098034 82.1895447,69.2213784 98,69.2213784 C113.810455,69.2213784 126.672058,82.098034 126.672058,97.9251529 L126.672058,97.9251529 Z M139.71759,25.5901447 C140.731445,31.0150458 141.609222,39.6853072 139.22113,47.7672721 C131.398896,51.3943512 125.366608,57.4255118 120.73996,64.8293643 C119.006836,63.6333113 117.178009,62.5689891 115.265442,61.6528631 C119.31189,54.0184828 121.560913,45.7613757 120.780334,37.1210536 C126.582336,31.006064 134.519714,27.423893 139.71759,25.5901447 L139.71759,25.5901447 Z M98.0119629,15.3945041 C111.667603,30.1079015 112.307617,44.0803154 104.056213,58.1979319 C102.080841,57.8970472 100.059112,57.7413657 98,57.7413657 C95.9423828,57.7413657 93.919159,57.8970472 91.9437868,58.1979319 C83.6804199,44.0608549 84.3563232,30.1797546 98.0119629,15.3945041 Z M56.2824099,25.5901447 C61.4832763,27.423893 69.419159,31.006064 75.21817,37.1210536 C74.4390869,45.7598788 76.6866151,54.0184828 80.7345583,61.6528631 C78.8204958,62.5689891 76.9916687,63.6333113 75.2600402,64.8293643 C70.6318968,57.424015 64.6011047,51.3943512 56.7788694,47.7672721 C54.3907775,39.6838103 55.2685547,31.0120517 56.2824099,25.5901447 Z M66.67218,72.8319918 C64.1539919,75.97556 62.0978699,79.5023448 60.6069945,83.3120504 C44.7815858,83.4033634 32.8829958,76.4740404 25.7366639,56.1471275 C46.7106018,52.1727587 58.7961122,58.9778363 66.67218,72.8319918 Z M34.0015257,87.2684556 C41.0446778,92.2323003 49.2706603,94.4462704 57.9826356,94.7576334 C57.9003906,95.8024959 57.8585205,96.8593335 57.8585205,97.9251529 C57.8585205,98.9909724 57.9003906,100.046313 57.9826356,101.091176 C49.2706603,101.404035 41.0446778,103.616509 34.0015257,108.580353 C25.8697509,106.599905 19.2019348,101.46541 15.3738097,97.9251529 C19.2049257,94.381902 25.8712462,89.2489039 34.0015257,87.2684556 L34.0015257,87.2684556 Z M25.7261962,139.682222 C32.7678527,119.534941 44.6679383,112.445446 60.6069945,112.536759 C62.0978699,116.347961 64.1539919,119.873249 66.67218,123.016818 C58.873871,136.736248 46.9767762,143.668566 25.7261962,139.682222 Z M56.3018494,170.634395 C55.2760314,165.106206 54.3743284,156.238348 56.7803651,148.08004 C64.6011047,144.454458 70.6333924,138.423297 75.2600402,131.019445 C77.0036317,132.222982 78.8444216,133.293293 80.770447,134.212412 C76.761383,141.935112 74.436096,150.443704 75.2196657,159.110972 C69.4251405,165.218476 61.4997254,168.800648 56.3018494,170.634395 L56.3018494,170.634395 Z M97.9865418,180.692318 C84.4026795,166.222921 83.6385498,152.066385 91.957245,137.653871 C93.928131,137.953259 95.946869,138.10894 98,138.10894 C100.054627,138.10894 102.071869,137.953259 104.042755,137.653871 C112.591736,152.46457 111.278809,166.465425 97.9865418,180.692318 L97.9865418,180.692318 Z M139.698151,170.634395 C134.497285,168.799151 126.573364,165.216979 120.78183,159.110972 C121.565399,150.442208 119.238617,141.935112 115.229553,134.213909 C117.155578,133.293293 118.997864,132.222982 120.73996,131.019445 C125.366608,138.423297 131.398896,144.454458 139.22113,148.081537 C141.625672,156.241343 140.722473,165.109199 139.698151,170.634395 Z M129.32782,123.016818 C131.846008,119.874746 133.90213,116.347961 135.393006,112.538256 C151.218415,112.445446 163.117005,119.374769 170.263336,139.701682 C149.289398,143.67605 137.203888,136.870973 129.32782,123.016818 Z M161.998474,108.580353 C154.953827,103.616509 146.72934,101.404035 138.017364,101.091176 C138.098114,100.046313 138.141479,98.9894755 138.141479,97.9236561 C138.141479,96.8578367 138.098114,95.8024959 138.017364,94.7576334 C146.72934,94.4462704 154.955322,92.2323003 161.998474,87.2684556 C170.130249,89.2504011 176.79657,94.3833993 180.62619,97.9236561 C176.795075,101.468404 170.128754,106.599905 161.998474,108.580353 L161.998474,108.580353 Z" id="Shape"></path>
                    <polygon id="Path" points="92.4528302 81.3584906 103.54717 81.3584906 103.54717 92.4528302 92.4528302 92.4528302"></polygon>
                    <polygon id="Path" points="92.4528302 103.54717 103.54717 103.54717 103.54717 114.641509 92.4528302 114.641509"></polygon>
                    <polygon id="Path" points="81.3584906 92.4528302 92.4528302 92.4528302 92.4528302 103.54717 81.3584906 103.54717"></polygon>
                    <polygon id="Path" points="103.54717 92.4528302 114.641509 92.4528302 114.641509 103.54717 103.54717 103.54717"></polygon>
                </g>
                <g id="sabi" transform="translate(637.653612, 149.306459) rotate(-11.000000) translate(-637.653612, -149.306459) translate(540.880907, 55.298688)">
                    <path d="M193.498273,116.662282 L188.655225,90.4125959 C186.593405,79.2376267 178.597897,70.1140226 167.789406,66.6024727 C165.8444,65.9704692 163.864992,65.535778 161.872731,65.2968867 C163.344433,63.9327119 164.72087,62.375761 165.922654,60.7216658 C172.560249,51.5867221 173.724228,39.5249826 168.911424,29.3104922 L157.673482,5.46105789 C157.262555,4.58902928 156.43692,3.9857533 155.481238,3.85912582 L129.016674,0.353245741 C117.75038,-1.13982449 106.601277,3.64442612 99.9213418,12.8375808 C98.7191803,14.4916757 97.6939406,16.2398909 96.8509154,18.0606806 C96.0075122,16.2387569 94.9815165,14.4897858 93.778977,12.8341789 L93.7203811,12.7536665 C87.0824083,3.61872262 75.9990843,-1.17459979 64.7966781,0.246651866 L38.6394588,3.56315773 C37.6830221,3.68449331 36.8536062,4.28323337 36.4381423,5.15299402 L24.9246107,29.2360278 C20.0233454,39.4886954 21.1283511,51.5689564 27.8086642,60.7621111 C29.0108257,62.4162061 30.3566416,63.9315778 31.8279663,65.2957527 C29.8341929,65.534644 27.8536507,65.9697133 25.9071319,66.6020946 L25.8126225,66.63309 C15.0725571,70.1223385 7.08914627,79.1805498 4.97855898,90.2731166 L0.0500749089,116.171648 C-0.130249314,117.118519 0.183144357,118.092228 0.882136996,118.756361 L20.2312664,137.146449 C26.0749809,142.700293 33.7264742,145.664132 41.5397678,145.663754 C44.7402392,145.663754 47.9683075,145.166316 51.1094268,144.145737 C53.0540553,143.513732 54.9113571,142.702183 56.6635641,141.724694 C56.2749409,143.693658 56.0768489,145.71138 56.0768489,147.756698 L56.0768489,147.858378 C56.0768489,159.149769 62.2260183,169.540404 72.1241926,174.975558 L95.2355582,187.665521 C95.6604731,187.898741 96.1303747,188.015541 96.6002761,188.015541 C97.0648851,188.015541 97.5294941,187.901388 97.9510066,187.67308 L121.422265,174.955902 C131.41457,169.541916 137.621958,159.11953 137.621958,147.755943 C137.621958,145.71138 137.423866,143.694413 137.035243,141.725828 C138.788205,142.704074 140.645507,143.515623 142.590892,144.148004 L142.687669,144.179377 C145.823874,145.198067 149.047784,145.694749 152.247122,145.694749 C160.004844,145.694749 167.613619,142.774001 173.439566,137.298781 L192.651845,119.242459 C193.35424,118.582106 193.673305,117.610287 193.498273,116.662282 L193.498273,116.662282 Z M104.508457,16.1703403 C109.964683,8.66189805 119.070867,4.75421198 128.271561,5.97399366 L153.202802,9.27689178 L163.781445,31.727376 C167.712287,40.0696697 166.75585,49.9284692 161.335917,57.3881504 C158.210296,61.6897047 153.865504,64.882607 148.82323,66.5556015 C148.771438,66.5722333 141.630297,68.8889491 141.630297,68.8889491 C145.212209,63.4696711 146.620779,57.003354 145.598186,50.5464868 C144.513972,43.7006653 140.828099,37.6868052 135.219524,33.6124245 C123.963437,25.4349356 108.280901,27.6458135 99.6880922,38.4144408 C99.6880922,38.4144408 99.6850678,30.9109124 99.6850678,30.8553474 C99.7198473,25.5445534 101.383972,20.4700045 104.508457,16.1703403 L104.508457,16.1703403 Z M117.060838,92.9806766 C122.724228,90.0096559 127.121569,84.9706384 129.296044,78.9083953 C132.997416,77.9683279 136.850381,78.0907976 140.522645,79.2833637 C145.674928,80.9571143 149.866993,84.537081 152.32651,89.3636667 C154.786026,94.1902525 155.218502,99.6855069 153.544549,104.837166 C151.870595,109.988826 148.290196,114.180384 143.463027,116.639603 C138.636234,119.098444 133.140315,119.531245 127.987654,117.857494 C124.315013,116.664172 121.125883,114.499032 118.68489,111.56392 C120.492291,105.379585 119.897259,98.7155783 117.060838,92.9806766 L117.060838,92.9806766 Z M75.0195872,111.56392 C72.5774605,114.502055 69.3871961,116.66833 65.7134208,117.86203 C55.078828,121.317638 43.6129293,115.47652 40.156526,104.84208 C38.4825728,99.6904208 38.9150485,94.1951664 41.3745651,89.3685806 C43.8340816,84.5419949 48.0261473,80.9620282 53.1784299,79.2882776 C56.8548515,78.0941995 60.708573,77.9698399 64.4084329,78.9099072 C66.5829087,84.9717724 70.980249,90.0100339 76.6432614,92.9810546 C73.8075967,98.7155783 73.2125647,105.379585 75.0195872,111.56392 L75.0195872,111.56392 Z M112.80753,74.6287646 C116.629496,74.5841615 120.42689,75.6380044 123.699189,77.6931495 C122.260753,81.2768959 119.81031,84.3594245 116.695275,86.5691684 C116.695653,86.5177615 116.699055,86.4667325 116.699055,86.4153255 C116.699055,82.0049095 115.251169,77.9271268 112.80753,74.6287646 Z M113.444902,109.250228 C109.593449,108.989413 105.905309,107.612765 102.841309,105.334604 C106.973266,104.024104 110.520399,101.393277 112.992769,97.9422056 C114.216856,101.563751 114.388486,105.502055 113.444902,109.250228 L113.444902,109.250228 Z M109.342054,69.2268743 C108.265401,62.9204481 104.829034,57.1794986 99.7315666,53.2381712 C99.9822059,49.4298971 101.289084,45.8068393 103.557313,42.6849996 C110.130641,33.638884 122.839152,31.6260741 131.887119,38.198607 C136.270093,41.3828155 139.150366,46.0823959 139.997928,51.4328791 C140.84549,56.7829845 139.55827,62.1429176 136.374054,66.5253622 C134.105446,69.6479579 131.062617,72.0104108 127.518887,73.4244806 C122.194219,69.795375 115.672682,68.3023047 109.342054,69.2268743 L109.342054,69.2268743 Z M111.028482,86.4153255 C111.028482,94.2314537 104.669124,100.590043 96.8520495,100.590043 C89.0349756,100.590043 82.6756169,94.2314537 82.6756169,86.4153255 C82.6756169,78.5991974 89.0349756,72.2406081 96.8520495,72.2406081 C104.669124,72.2406081 111.028482,78.5991974 111.028482,86.4153255 Z M90.8635464,105.334604 C87.7995468,107.612765 84.111406,108.989791 80.2595747,109.24985 C79.3156134,105.501677 79.4872427,101.563751 80.7117085,97.9418277 C83.1844564,101.393655 86.7315889,104.024104 90.8635464,105.334604 Z M77.0050439,86.4153255 C77.0050439,86.4671105 77.0084462,86.5177615 77.0088242,86.5691684 C73.8934115,84.3594245 71.4433458,81.2768959 70.0049105,77.6931495 C73.2775872,75.6380044 77.074981,74.5841615 80.8965691,74.6287646 C78.4533083,77.9271268 77.0050439,82.0049095 77.0050439,86.4153255 Z M79.6860908,114.947709 C86.1233254,114.752664 92.2758971,112.129019 96.8520495,107.661526 C101.42858,112.128641 107.578884,114.751909 114.016874,114.946197 C116.057902,118.177276 117.133799,121.881602 117.133799,125.745441 C117.133799,136.927592 108.035554,146.024737 96.8520495,146.024737 C85.6685454,146.024737 76.5702999,136.927592 76.5702999,125.745441 C76.5702999,121.881602 77.6454405,118.177654 79.6860908,114.947709 L79.6860908,114.947709 Z M96.8520495,58.1902504 C99.8162471,60.665723 101.991479,63.9485875 103.130508,67.5943248 C101.155637,66.933972 99.0461833,66.5707213 96.8520495,66.5707213 C94.6579158,66.5707213 92.5484627,66.933972 90.573591,67.5943248 C91.7129983,63.9485875 93.887852,60.6653451 96.8520495,58.1902504 Z M30.0409798,31.681261 L40.8868958,8.99377544 L65.5096582,5.8719357 C74.6608289,4.71187683 83.7110635,8.62598877 89.1332656,16.087938 L89.1918614,16.1684504 C92.3167252,20.4688706 93.9808494,25.5437974 94.0148729,30.8545915 C94.0148729,30.9101563 94.0114705,38.4178427 94.0114705,38.4178427 C86.8949013,29.4945746 74.7674357,26.2355235 64.0946612,30.5106184 C62.6411043,31.0927267 61.9349289,32.7430418 62.5171078,34.1964229 C63.0992866,35.6498039 64.7494233,36.3555159 66.2033582,35.7737854 C74.8279219,32.3189343 84.6712807,35.1621936 90.1396032,42.6880235 C92.4093446,45.8113753 93.7162226,49.4363229 93.9657279,53.2445971 C88.8724192,57.1855465 85.4390762,62.92385 84.3628014,69.2268743 C78.0276372,68.3023047 71.5019418,69.7972649 66.1768956,73.4305285 C62.6346776,72.0160807 59.5926041,69.6517379 57.3224848,66.5280081 C51.8515159,58.9987763 52.1913722,48.7570705 58.1488763,41.6224627 C59.1525677,40.4204468 58.9915234,38.6329204 57.7893619,37.6293504 C56.5875785,36.6257804 54.7994578,36.7868052 53.7957663,37.9888213 C46.4251556,46.8164572 45.7730396,59.3574911 52.0613271,68.885925 C52.0613271,68.885925 44.9285023,66.5714772 44.8767111,66.5548456 C39.8348155,64.8818509 35.5210215,61.7305278 32.3961578,57.4297296 C26.9403104,49.9209093 26.0379332,40.054928 30.0409798,31.681261 L30.0409798,31.681261 Z M49.3572198,138.753674 C40.5296496,141.62188 30.8658591,139.431414 24.1382912,133.036916 L5.91004511,115.712387 L10.5493299,91.3326294 C12.2735622,82.2732841 18.7935871,74.8748377 27.5670978,72.0247745 L27.6616073,71.9937791 C32.7190024,70.3510239 38.0618163,70.3370381 43.124882,71.9469081 C43.1762952,71.9639177 50.3155467,74.2866814 50.3155467,74.2866814 C44.2321559,76.565598 39.2908185,80.9692101 36.3228406,86.794074 C33.1756726,92.9700928 32.6222246,100.001509 34.7641891,106.593697 C38.3241748,117.547919 48.5221335,124.52755 59.4644492,124.526416 C61.7387271,124.526416 64.0462722,124.222132 66.3318913,123.592018 L61.9867202,129.571481 C61.9542089,129.616084 61.9243439,129.6622 61.8922106,129.70718 C58.7423962,133.983409 54.4127247,137.111296 49.3572198,138.753674 L49.3572198,138.753674 Z M118.720804,169.970559 L96.609349,181.95103 L74.8536285,170.005335 C66.7692814,165.566191 61.747422,157.079882 61.747422,147.858 L61.747422,147.75632 C61.747422,142.440235 63.3847055,137.356236 66.4793261,133.039561 C66.5118375,132.995336 70.9295919,126.920998 70.9295919,126.920998 C71.5469283,140.685593 82.9364633,151.694245 96.8520495,151.694245 C110.766124,151.694245 122.154147,140.688617 122.774507,126.926668 C122.774507,126.926668 127.186213,132.993447 127.218346,133.036916 C130.313724,137.35359 131.951384,142.438722 131.951384,147.755186 C131.951384,157.036791 126.881892,165.549182 118.720804,169.970559 Z M169.555979,133.167324 C162.835216,139.4832 153.21112,141.636622 144.440255,138.786937 L144.343477,138.755564 C139.286459,137.11243 134.956788,133.984543 131.807352,129.70718 C131.775219,129.662577 127.364269,123.586348 127.364269,123.586348 C133.625338,125.317554 140.21152,124.658713 146.03671,121.691472 C152.213098,118.544685 156.794543,113.18135 158.936886,106.589161 C161.079229,99.9969727 160.525781,92.9655569 157.378612,86.789538 C154.41139,80.9665643 149.471943,76.563708 143.391199,74.2840354 C143.391199,74.2840354 150.523645,71.9642958 150.575059,71.9472861 C155.637368,70.3381721 160.979427,70.3517798 166.036822,71.994913 C174.86477,74.862742 181.394624,82.3141074 183.078784,91.4414913 L187.641326,116.170136 L169.555979,133.167324 Z" id="Shape"></path>
                    <path d="M90.3211915,85.7129674 C90.3211915,90.2869063 94.0420559,94.0077708 98.6159947,94.0077708 C103.189934,94.0077708 106.910798,90.2869063 106.910798,85.7129674 C106.910798,81.1390286 103.189934,77.4181642 98.6159947,77.4181642 C94.0420559,77.4181642 90.3211915,81.1390286 90.3211915,85.7129674 L90.3211915,85.7129674 Z M101.380929,85.7129674 C101.380929,87.2377366 100.140764,88.4779018 98.6159947,88.4779018 C97.0912256,88.4779018 95.8510603,87.2377366 95.8510603,85.7129674 C95.8510603,84.1881982 97.0912256,82.948033 98.6159947,82.948033 C100.140764,82.948033 101.380929,84.1881982 101.380929,85.7129674 Z" id="Shape"></path>
                </g>
                <g id="sabi-copy" transform="translate(239.503054, 147.463170) rotate(16.000000) translate(-239.503054, -147.463170) translate(142.730349, 53.455400)">
                    <path d="M193.498273,116.662282 L188.655225,90.4125959 C186.593405,79.2376267 178.597897,70.1140226 167.789406,66.6024727 C165.8444,65.9704692 163.864992,65.535778 161.872731,65.2968867 C163.344433,63.9327119 164.72087,62.375761 165.922654,60.7216658 C172.560249,51.5867221 173.724228,39.5249826 168.911424,29.3104922 L157.673482,5.46105789 C157.262555,4.58902928 156.43692,3.9857533 155.481238,3.85912582 L129.016674,0.353245741 C117.75038,-1.13982449 106.601277,3.64442612 99.9213418,12.8375808 C98.7191803,14.4916757 97.6939406,16.2398909 96.8509154,18.0606806 C96.0075122,16.2387569 94.9815165,14.4897858 93.778977,12.8341789 L93.7203811,12.7536665 C87.0824083,3.61872262 75.9990843,-1.17459979 64.7966781,0.246651866 L38.6394588,3.56315773 C37.6830221,3.68449331 36.8536062,4.28323337 36.4381423,5.15299402 L24.9246107,29.2360278 C20.0233454,39.4886954 21.1283511,51.5689564 27.8086642,60.7621111 C29.0108257,62.4162061 30.3566416,63.9315778 31.8279663,65.2957527 C29.8341929,65.534644 27.8536507,65.9697133 25.9071319,66.6020946 L25.8126225,66.63309 C15.0725571,70.1223385 7.08914627,79.1805498 4.97855898,90.2731166 L0.0500749089,116.171648 C-0.130249314,117.118519 0.183144357,118.092228 0.882136996,118.756361 L20.2312664,137.146449 C26.0749809,142.700293 33.7264742,145.664132 41.5397678,145.663754 C44.7402392,145.663754 47.9683075,145.166316 51.1094268,144.145737 C53.0540553,143.513732 54.9113571,142.702183 56.6635641,141.724694 C56.2749409,143.693658 56.0768489,145.71138 56.0768489,147.756698 L56.0768489,147.858378 C56.0768489,159.149769 62.2260183,169.540404 72.1241926,174.975558 L95.2355582,187.665521 C95.6604731,187.898741 96.1303747,188.015541 96.6002761,188.015541 C97.0648851,188.015541 97.5294941,187.901388 97.9510066,187.67308 L121.422265,174.955902 C131.41457,169.541916 137.621958,159.11953 137.621958,147.755943 C137.621958,145.71138 137.423866,143.694413 137.035243,141.725828 C138.788205,142.704074 140.645507,143.515623 142.590892,144.148004 L142.687669,144.179377 C145.823874,145.198067 149.047784,145.694749 152.247122,145.694749 C160.004844,145.694749 167.613619,142.774001 173.439566,137.298781 L192.651845,119.242459 C193.35424,118.582106 193.673305,117.610287 193.498273,116.662282 L193.498273,116.662282 Z M104.508457,16.1703403 C109.964683,8.66189805 119.070867,4.75421198 128.271561,5.97399366 L153.202802,9.27689178 L163.781445,31.727376 C167.712287,40.0696697 166.75585,49.9284692 161.335917,57.3881504 C158.210296,61.6897047 153.865504,64.882607 148.82323,66.5556015 C148.771438,66.5722333 141.630297,68.8889491 141.630297,68.8889491 C145.212209,63.4696711 146.620779,57.003354 145.598186,50.5464868 C144.513972,43.7006653 140.828099,37.6868052 135.219524,33.6124245 C123.963437,25.4349356 108.280901,27.6458135 99.6880922,38.4144408 C99.6880922,38.4144408 99.6850678,30.9109124 99.6850678,30.8553474 C99.7198473,25.5445534 101.383972,20.4700045 104.508457,16.1703403 L104.508457,16.1703403 Z M117.060838,92.9806766 C122.724228,90.0096559 127.121569,84.9706384 129.296044,78.9083953 C132.997416,77.9683279 136.850381,78.0907976 140.522645,79.2833637 C145.674928,80.9571143 149.866993,84.537081 152.32651,89.3636667 C154.786026,94.1902525 155.218502,99.6855069 153.544549,104.837166 C151.870595,109.988826 148.290196,114.180384 143.463027,116.639603 C138.636234,119.098444 133.140315,119.531245 127.987654,117.857494 C124.315013,116.664172 121.125883,114.499032 118.68489,111.56392 C120.492291,105.379585 119.897259,98.7155783 117.060838,92.9806766 L117.060838,92.9806766 Z M75.0195872,111.56392 C72.5774605,114.502055 69.3871961,116.66833 65.7134208,117.86203 C55.078828,121.317638 43.6129293,115.47652 40.156526,104.84208 C38.4825728,99.6904208 38.9150485,94.1951664 41.3745651,89.3685806 C43.8340816,84.5419949 48.0261473,80.9620282 53.1784299,79.2882776 C56.8548515,78.0941995 60.708573,77.9698399 64.4084329,78.9099072 C66.5829087,84.9717724 70.980249,90.0100339 76.6432614,92.9810546 C73.8075967,98.7155783 73.2125647,105.379585 75.0195872,111.56392 L75.0195872,111.56392 Z M112.80753,74.6287646 C116.629496,74.5841615 120.42689,75.6380044 123.699189,77.6931495 C122.260753,81.2768959 119.81031,84.3594245 116.695275,86.5691684 C116.695653,86.5177615 116.699055,86.4667325 116.699055,86.4153255 C116.699055,82.0049095 115.251169,77.9271268 112.80753,74.6287646 Z M113.444902,109.250228 C109.593449,108.989413 105.905309,107.612765 102.841309,105.334604 C106.973266,104.024104 110.520399,101.393277 112.992769,97.9422056 C114.216856,101.563751 114.388486,105.502055 113.444902,109.250228 L113.444902,109.250228 Z M109.342054,69.2268743 C108.265401,62.9204481 104.829034,57.1794986 99.7315666,53.2381712 C99.9822059,49.4298971 101.289084,45.8068393 103.557313,42.6849996 C110.130641,33.638884 122.839152,31.6260741 131.887119,38.198607 C136.270093,41.3828155 139.150366,46.0823959 139.997928,51.4328791 C140.84549,56.7829845 139.55827,62.1429176 136.374054,66.5253622 C134.105446,69.6479579 131.062617,72.0104108 127.518887,73.4244806 C122.194219,69.795375 115.672682,68.3023047 109.342054,69.2268743 L109.342054,69.2268743 Z M111.028482,86.4153255 C111.028482,94.2314537 104.669124,100.590043 96.8520495,100.590043 C89.0349756,100.590043 82.6756169,94.2314537 82.6756169,86.4153255 C82.6756169,78.5991974 89.0349756,72.2406081 96.8520495,72.2406081 C104.669124,72.2406081 111.028482,78.5991974 111.028482,86.4153255 Z M90.8635464,105.334604 C87.7995468,107.612765 84.111406,108.989791 80.2595747,109.24985 C79.3156134,105.501677 79.4872427,101.563751 80.7117085,97.9418277 C83.1844564,101.393655 86.7315889,104.024104 90.8635464,105.334604 Z M77.0050439,86.4153255 C77.0050439,86.4671105 77.0084462,86.5177615 77.0088242,86.5691684 C73.8934115,84.3594245 71.4433458,81.2768959 70.0049105,77.6931495 C73.2775872,75.6380044 77.074981,74.5841615 80.8965691,74.6287646 C78.4533083,77.9271268 77.0050439,82.0049095 77.0050439,86.4153255 Z M79.6860908,114.947709 C86.1233254,114.752664 92.2758971,112.129019 96.8520495,107.661526 C101.42858,112.128641 107.578884,114.751909 114.016874,114.946197 C116.057902,118.177276 117.133799,121.881602 117.133799,125.745441 C117.133799,136.927592 108.035554,146.024737 96.8520495,146.024737 C85.6685454,146.024737 76.5702999,136.927592 76.5702999,125.745441 C76.5702999,121.881602 77.6454405,118.177654 79.6860908,114.947709 L79.6860908,114.947709 Z M96.8520495,58.1902504 C99.8162471,60.665723 101.991479,63.9485875 103.130508,67.5943248 C101.155637,66.933972 99.0461833,66.5707213 96.8520495,66.5707213 C94.6579158,66.5707213 92.5484627,66.933972 90.573591,67.5943248 C91.7129983,63.9485875 93.887852,60.6653451 96.8520495,58.1902504 Z M30.0409798,31.681261 L40.8868958,8.99377544 L65.5096582,5.8719357 C74.6608289,4.71187683 83.7110635,8.62598877 89.1332656,16.087938 L89.1918614,16.1684504 C92.3167252,20.4688706 93.9808494,25.5437974 94.0148729,30.8545915 C94.0148729,30.9101563 94.0114705,38.4178427 94.0114705,38.4178427 C86.8949013,29.4945746 74.7674357,26.2355235 64.0946612,30.5106184 C62.6411043,31.0927267 61.9349289,32.7430418 62.5171078,34.1964229 C63.0992866,35.6498039 64.7494233,36.3555159 66.2033582,35.7737854 C74.8279219,32.3189343 84.6712807,35.1621936 90.1396032,42.6880235 C92.4093446,45.8113753 93.7162226,49.4363229 93.9657279,53.2445971 C88.8724192,57.1855465 85.4390762,62.92385 84.3628014,69.2268743 C78.0276372,68.3023047 71.5019418,69.7972649 66.1768956,73.4305285 C62.6346776,72.0160807 59.5926041,69.6517379 57.3224848,66.5280081 C51.8515159,58.9987763 52.1913722,48.7570705 58.1488763,41.6224627 C59.1525677,40.4204468 58.9915234,38.6329204 57.7893619,37.6293504 C56.5875785,36.6257804 54.7994578,36.7868052 53.7957663,37.9888213 C46.4251556,46.8164572 45.7730396,59.3574911 52.0613271,68.885925 C52.0613271,68.885925 44.9285023,66.5714772 44.8767111,66.5548456 C39.8348155,64.8818509 35.5210215,61.7305278 32.3961578,57.4297296 C26.9403104,49.9209093 26.0379332,40.054928 30.0409798,31.681261 L30.0409798,31.681261 Z M49.3572198,138.753674 C40.5296496,141.62188 30.8658591,139.431414 24.1382912,133.036916 L5.91004511,115.712387 L10.5493299,91.3326294 C12.2735622,82.2732841 18.7935871,74.8748377 27.5670978,72.0247745 L27.6616073,71.9937791 C32.7190024,70.3510239 38.0618163,70.3370381 43.124882,71.9469081 C43.1762952,71.9639177 50.3155467,74.2866814 50.3155467,74.2866814 C44.2321559,76.565598 39.2908185,80.9692101 36.3228406,86.794074 C33.1756726,92.9700928 32.6222246,100.001509 34.7641891,106.593697 C38.3241748,117.547919 48.5221335,124.52755 59.4644492,124.526416 C61.7387271,124.526416 64.0462722,124.222132 66.3318913,123.592018 L61.9867202,129.571481 C61.9542089,129.616084 61.9243439,129.6622 61.8922106,129.70718 C58.7423962,133.983409 54.4127247,137.111296 49.3572198,138.753674 L49.3572198,138.753674 Z M118.720804,169.970559 L96.609349,181.95103 L74.8536285,170.005335 C66.7692814,165.566191 61.747422,157.079882 61.747422,147.858 L61.747422,147.75632 C61.747422,142.440235 63.3847055,137.356236 66.4793261,133.039561 C66.5118375,132.995336 70.9295919,126.920998 70.9295919,126.920998 C71.5469283,140.685593 82.9364633,151.694245 96.8520495,151.694245 C110.766124,151.694245 122.154147,140.688617 122.774507,126.926668 C122.774507,126.926668 127.186213,132.993447 127.218346,133.036916 C130.313724,137.35359 131.951384,142.438722 131.951384,147.755186 C131.951384,157.036791 126.881892,165.549182 118.720804,169.970559 Z M169.555979,133.167324 C162.835216,139.4832 153.21112,141.636622 144.440255,138.786937 L144.343477,138.755564 C139.286459,137.11243 134.956788,133.984543 131.807352,129.70718 C131.775219,129.662577 127.364269,123.586348 127.364269,123.586348 C133.625338,125.317554 140.21152,124.658713 146.03671,121.691472 C152.213098,118.544685 156.794543,113.18135 158.936886,106.589161 C161.079229,99.9969727 160.525781,92.9655569 157.378612,86.789538 C154.41139,80.9665643 149.471943,76.563708 143.391199,74.2840354 C143.391199,74.2840354 150.523645,71.9642958 150.575059,71.9472861 C155.637368,70.3381721 160.979427,70.3517798 166.036822,71.994913 C174.86477,74.862742 181.394624,82.3141074 183.078784,91.4414913 L187.641326,116.170136 L169.555979,133.167324 Z" id="Shape"></path>
                    <path d="M90.3211915,85.7129674 C90.3211915,90.2869063 94.0420559,94.0077708 98.6159947,94.0077708 C103.189934,94.0077708 106.910798,90.2869063 106.910798,85.7129674 C106.910798,81.1390286 103.189934,77.4181642 98.6159947,77.4181642 C94.0420559,77.4181642 90.3211915,81.1390286 90.3211915,85.7129674 L90.3211915,85.7129674 Z M101.380929,85.7129674 C101.380929,87.2377366 100.140764,88.4779018 98.6159947,88.4779018 C97.0912256,88.4779018 95.8510603,87.2377366 95.8510603,85.7129674 C95.8510603,84.1881982 97.0912256,82.948033 98.6159947,82.948033 C100.140764,82.948033 101.380929,84.1881982 101.380929,85.7129674 Z" id="Shape"></path>
                </g>
                <g id="sunflower" transform="translate(301.000000, 0.000000)">
                    <path d="M238.610481,109.040287 C250.792922,93.4505934 254.7732,75.1149277 254.991898,74.070333 L256.460289,67.0625811 L249.664032,64.8316101 C248.65178,64.4980068 230.833214,58.7933923 211.275489,61.5435332 C214.022736,41.9276657 208.288719,24.03194 207.986709,23.1103609 L205.758087,16.3069408 L198.757713,17.7768802 C197.807945,17.9770421 179.389527,21.96777 163.772507,34.2172622 C156.284752,16.3820014 142.356903,4.79346095 141.555015,4.13876444 L136.5,0 L131.442901,4.13876444 C130.643097,4.79346095 116.713165,16.3820014 109.22541,34.2172622 C93.6104736,21.9698548 75.1899719,17.9770421 74.2402039,17.7768802 L67.2398301,16.3069408 L65.0112074,23.1103609 C64.709198,24.03194 58.9772644,41.9276657 61.7245104,61.5435332 C42.1667861,58.7933923 24.3482206,64.4980068 23.3338854,64.8316101 L16.5376281,67.0625811 L18.0060194,74.070333 C18.2247165,75.1170131 22.204994,93.4505934 34.3895189,109.040287 C16.3147658,116.546359 4.69885254,130.618159 4.10524763,131.347916 L0,136.395749 L4.10524763,141.443582 C4.69885254,142.173339 16.3168485,156.245139 34.3895189,163.751211 C22.2070774,179.340904 18.2247165,197.674484 18.0060194,198.721165 L16.5397108,205.728917 L23.3359681,207.959887 C24.1524352,208.228856 35.9141465,211.996486 50.7042847,211.996486 C54.2409208,211.996486 57.9545973,211.771304 61.7328417,211.24171 C58.9710158,230.980593 64.6946181,249.226602 64.9966281,250.164862 L67.196091,257.024577 L74.2402039,255.546297 C75.1899719,255.348221 93.6208877,251.351238 109.23999,239.095491 C116.740242,256.861945 130.68267,268.304535 131.484558,268.952976 L136.5,273 L141.513359,268.952976 C142.315247,268.304535 156.257675,256.861945 163.76001,239.095491 C179.379112,251.351238 197.810028,255.348221 198.759796,255.546297 L205.801826,257.024577 L208.003372,250.164862 C208.303298,249.226602 214.028984,230.980593 211.267158,211.24171 C215.045403,211.771304 218.759079,211.996486 222.295715,211.996486 C237.083771,211.996486 248.847564,208.22677 249.664032,207.959887 L256.460289,205.728917 L254.993981,198.721165 C254.775283,197.674484 250.792922,179.340904 238.610481,163.751211 C256.683151,156.245139 268.301147,142.173339 268.894753,141.443582 L273,136.395749 L268.894753,131.345831 C268.301147,130.616074 256.683151,116.544274 238.610481,109.040287 Z M237.167084,78.2320327 C227.359062,106.296401 210.78186,116.171055 188.583115,116.041784 C186.506538,110.735409 183.642654,105.823101 180.135178,101.44456 C190.995026,82.3395222 207.565979,72.6796245 237.167084,78.2320327 Z M176.436081,136.395749 C176.436081,158.438579 158.521705,176.373921 136.5,176.373921 C114.478295,176.373921 96.5639188,158.438579 96.5639188,136.395749 C96.5639188,114.350833 114.478295,96.4154914 136.5,96.4154914 C158.521705,96.4154914 176.436081,114.350833 176.436081,136.395749 L176.436081,136.395749 Z M194.606644,35.6434159 C196.018799,43.1995282 197.241417,55.2759635 193.915146,66.5329863 C183.01989,71.5849892 174.617775,79.9855343 168.173516,90.2980432 C165.759522,88.6321122 163.212227,87.1496633 160.548294,85.8736307 C166.184418,75.2400295 169.316986,63.739059 168.229751,51.7043246 C176.311111,43.1870178 187.366746,38.1975651 194.606644,35.6434159 L194.606644,35.6434159 Z M136.516662,21.442345 C155.537018,41.9360057 156.428467,61.397582 144.93544,81.0614052 C142.184028,80.6423158 139.36805,80.4254737 136.5,80.4254737 C133.634033,80.4254737 130.815972,80.6423158 128.06456,81.0614052 C116.554871,61.3704765 117.496307,42.0360868 136.516662,21.442345 Z M78.3933565,35.6434159 C85.6374207,38.1975651 96.6909715,43.1870178 104.768165,51.7043246 C103.683014,63.7369741 106.8135,75.2400295 112.451706,85.8736307 C109.785691,87.1496633 107.238396,88.6321122 104.826484,90.2980432 C98.380142,79.9834494 89.98011,71.5849892 79.0848539,66.5329863 C75.7585829,55.2738786 76.9812012,43.1953578 78.3933565,35.6434159 Z M92.8648221,101.44456 C89.3573459,105.823101 86.4934618,110.735409 84.4168851,116.041784 C62.3743517,116.16897 45.8013156,106.517413 35.8474962,78.2049275 C65.0611953,72.6691995 81.8945848,82.1477004 92.8648221,101.44456 Z M47.359268,121.552492 C57.1693726,128.466418 68.6269911,131.550162 80.7615282,131.983846 C80.6469727,133.439191 80.5886536,134.911215 80.5886536,136.395749 C80.5886536,137.880283 80.6469727,139.350222 80.7615282,140.805566 C68.6269911,141.241335 57.1693726,144.322995 47.359268,151.23692 C36.0328675,148.478439 26.7455519,141.326821 21.4135207,136.395749 C26.7497178,131.460507 36.0349502,124.310973 47.359268,121.552492 L47.359268,121.552492 Z M35.8329162,194.557379 C45.6409377,166.495096 62.216057,156.620442 84.4168851,156.747629 C86.4934618,162.056089 89.3573459,166.966311 92.8648221,171.344853 C82.0028916,190.45406 65.4319384,200.109788 35.8329162,194.557379 Z M78.4204332,237.669336 C76.9916151,229.969358 75.7356718,217.6177 79.0869371,206.254341 C89.98011,201.204423 98.3822252,192.803878 104.826484,182.491369 C107.255058,184.167725 109.819016,185.658515 112.501694,186.938717 C106.917641,197.695335 103.678848,209.546588 104.770249,221.618854 C96.6993028,230.125736 85.6603319,235.115187 78.4204332,237.669336 L78.4204332,237.669336 Z M136.481255,251.678586 C117.560875,231.524783 116.496551,211.80675 128.083305,191.732177 C130.828468,192.149182 133.640282,192.366024 136.5,192.366024 C139.361801,192.366024 142.171532,192.149182 144.916695,191.732177 C156.824204,212.361366 154.995483,231.862556 136.481255,251.678586 L136.481255,251.678586 Z M194.579567,237.669336 C187.335503,235.113103 176.298614,230.12365 168.231834,221.618854 C169.323235,209.544504 166.082359,197.695335 160.498306,186.940802 C163.180985,185.658515 165.747024,184.167725 168.173516,182.491369 C174.617775,192.803878 183.01989,201.204423 193.915146,206.256427 C197.264328,217.621871 196.006302,229.973528 194.579567,237.669336 Z M180.135178,171.344853 C183.642654,166.968397 186.506538,162.056089 188.583115,156.749714 C210.625648,156.620442 227.198684,166.271999 237.152503,194.584485 C207.938804,200.120212 191.105415,190.641712 180.135178,171.344853 Z M225.640732,151.23692 C215.828544,144.322995 204.373009,141.241335 192.238472,140.805566 C192.350944,139.350222 192.411346,137.878198 192.411346,136.393663 C192.411346,134.909129 192.350944,133.439191 192.238472,131.983846 C204.373009,131.550162 215.830628,128.466418 225.640732,121.552492 C236.967132,124.313059 246.252366,131.462592 251.586479,136.393663 C246.250283,141.330991 236.965049,148.478439 225.640732,151.23692 L225.640732,151.23692 Z" id="Shape"></path>
                    <polygon id="Path" points="129.121622 112.52027 145.722972 112.52027 145.722972 129.121622 129.121622 129.121622"></polygon>
                    <polygon id="Path" points="129.121622 143.878379 145.722972 143.878379 145.722972 160.47973 129.121622 160.47973"></polygon>
                    <polygon id="Path" points="112.52027 127.277027 129.121622 127.277027 129.121622 143.878379 112.52027 143.878379"></polygon>
                    <polygon id="Path" points="143.878379 127.277027 160.47973 127.277027 160.47973 143.878379 143.878379 143.878379"></polygon>
                </g>
            </g>
        </g>
    </g>
</svg>