<?xml version="1.0" encoding="UTF-8"?>
<svg width="1024px" height="1024px" viewBox="0 0 1024 1024" version="1.1" xmlns="http://www.w3.org/2000/svg" xmlns:xlink="http://www.w3.org/1999/xlink">
    <title>Group 2</title>
    <g id="Page-1" stroke="none" stroke-width="1" fill="none" fill-rule="evenodd">
        <g id="Group-2">
            <rect id="Rectangle" fill="#FFFFFF" x="0" y="0" width="1024" height="1024"></rect>
            <g id="lion" transform="translate(121.507463, 53.000000)" fill="#000000" fill-rule="nonzero">
                <path d="M205.025373,470.314795 C169.423044,473.404816 148.312422,485.901915 146.811727,486.815942 C142.564194,489.408158 141.220829,494.955275 143.811237,499.205773 C146.401645,503.456272 151.944891,504.800575 156.192424,502.208358 C156.531116,502.001035 177.37871,489.671597 212.995453,487.966136 C216.180602,494.636544 219.38737,500.935572 222.52748,506.816348 C197.727274,510.160566 176.360832,518.184886 159.741487,530.593647 C157.162125,532.519778 155.805558,535.676629 156.182791,538.875047 C156.560024,542.073465 158.613747,544.827533 161.570341,546.09982 C164.526936,547.372107 167.937226,546.969323 170.516587,545.043193 C188.577176,531.55635 210.94168,525.776531 232.090134,523.872761 C235.860789,530.281761 239.344996,535.852453 242.333776,540.427992 C220.341515,546.409362 200.214575,557.85091 183.81927,573.691693 C181.463725,575.917782 180.484311,579.238281 181.254332,582.387575 C182.024353,585.536868 184.425169,588.029727 187.541702,588.91599 C190.658236,589.802254 194.010305,588.945371 196.32026,586.671946 C212.163401,571.499497 231.911992,561.036546 253.357491,556.453196 C259.357083,565.702737 267.24927,573.573398 276.512877,579.545426 C279.26497,581.307387 282.121493,582.900402 285.06666,584.315669 C286.709168,603.849974 295.087985,622.204978 308.767917,636.236681 C327.172603,654.670443 354.280601,664 389.419931,664 L389.780242,664 L390.140553,664 C425.270875,664 452.387881,654.675852 470.792567,636.236681 C484.473253,622.205495 492.852201,603.850206 494.493824,584.315669 C497.439192,582.90079 500.295738,581.307761 503.047608,579.545426 C512.779312,573.282665 520.994109,564.928489 527.094764,555.090269 C550.988755,558.931804 573.153267,569.945098 590.653624,586.671946 C592.963579,588.945371 596.315648,589.802254 599.432181,588.91599 C602.548714,588.029727 604.94953,585.536868 605.719551,582.387575 C606.489572,579.238281 605.510158,575.917782 603.154614,573.691693 C585.142504,556.317855 562.688018,544.25587 538.264404,538.834305 C541.094647,534.45347 544.312225,529.263172 547.769409,523.369776 C570.922993,524.563238 596.357347,530.040184 616.457296,545.043193 C620.444643,548.020732 626.089115,547.199863 629.064577,543.209732 C632.040039,539.2196 631.219743,533.571187 627.232396,530.593647 C609.072722,517.032889 585.256165,508.700287 557.474385,506.001477 C560.522616,500.264926 563.6321,494.126348 566.718164,487.656052 C605.966841,487.80208 629.304184,501.323177 630.80488,502.224584 C635.05689,504.80983 640.598119,503.456245 643.181562,499.201266 C645.765005,494.946287 644.412365,489.401189 640.160355,486.815942 C638.560574,485.84062 614.684566,471.724595 574.736885,469.846064 C578.520151,460.940168 582.139475,451.585372 585.429114,441.884435 C610.912109,366.717954 604.93455,304.149529 568.134186,260.919878 C539.366956,227.129756 510.091688,209.359429 481.11908,208.075826 C457.255683,207.022984 434.494837,216.972708 413.506721,237.641958 C403.418013,247.584471 395.172296,255.870199 389.906351,261.213737 C384.561137,255.91527 376.205525,247.64757 366.044755,237.641958 C345.058441,216.972708 322.292191,207.021181 298.432396,208.075826 C269.465194,209.350415 240.189925,227.129756 211.41729,260.919878 C174.618728,304.142318 168.641169,366.717954 194.122363,441.884435 C197.478659,451.758442 201.173649,461.271885 205.025373,470.314795 L205.025373,470.314795 Z M241.750072,504.472691 C238.95586,499.399576 236.078777,493.953278 233.190884,488.189685 C237.154305,488.456501 241.224018,488.847712 245.441458,489.413795 C243.664985,494.284038 242.427137,499.334409 241.750072,504.474494 L241.750072,504.472691 Z M457.864608,623.680089 C443.884542,637.561749 422.999115,644.998352 395.671327,645.874519 L395.671327,645.863702 C393.661993,645.928603 391.685687,645.961655 389.74241,645.962857 C387.820751,645.962857 385.870267,645.929805 383.890959,645.863702 C356.554164,644.982127 335.675943,637.554537 321.695876,623.671075 C312.807479,614.633432 306.743652,603.199592 304.246014,590.767937 C320.703872,594.090761 337.794293,591.997473 352.965466,584.800626 C366.310342,578.232214 378.841801,570.124581 390.304495,560.642933 C401.265965,570.285945 413.472636,578.411217 426.59682,584.800626 C441.767357,591.997458 458.857204,594.090753 475.31447,590.767937 C472.819599,603.203734 466.755526,614.641799 457.864608,623.681892 L457.864608,623.680089 Z M373.099645,495.635302 C357.177502,490.641511 344.68672,484.566632 335.627301,477.410667 C337.789167,473.924026 341.920132,468.757165 347.89589,467.675477 C355.222814,466.350409 364.639542,471.299131 375.254304,481.986206 C375.562554,482.808441 375.990543,483.580574 376.524401,484.277581 C379.606524,488.184716 385.270044,488.85219 389.17492,485.768507 C405.633926,472.770226 419.511304,467.489787 429.295549,470.480654 C434.081265,472.148059 438.102453,475.491996 440.616521,479.894943 C431.402168,486.320168 419.199635,491.817546 404.008924,496.387075 C399.415276,497.765024 396.705843,502.502908 397.845804,507.164291 C398.270666,508.890836 398.085436,510.711307 397.321551,512.31673 C397.09996,512.668279 396.431583,513.73915 393.628364,514.341289 C392.212515,514.648322 390.84597,515.150062 389.567659,515.832215 C384.653017,514.804612 381.979509,513.263207 381.127374,512.010252 C380.671235,511.262252 380.590596,510.343921 380.909385,509.527779 C382.391881,503.558679 378.967454,497.467876 373.099645,495.637105 L373.099645,495.635302 Z M537.815817,504.469086 C537.181707,499.694209 536.065027,494.99605 534.482941,490.446807 C538.446362,489.754527 542.308895,489.217288 546.068741,488.793627 C543.283537,494.328263 540.509142,499.572646 537.815817,504.46548 L537.815817,504.469086 Z M225.136132,272.612923 C250.538057,242.787186 275.457166,227.135164 299.225081,226.089533 C317.898198,225.254831 336.133538,233.481066 353.41045,250.496014 C371.326914,268.138341 383.63694,280.383047 383.645947,280.390258 C387.174415,283.898257 392.876359,283.880501 396.382941,280.350596 C396.408163,280.325356 396.424377,280.294709 396.449599,280.269469 C396.5667,280.146878 408.492994,267.869722 426.142828,250.488803 C443.423344,233.472052 461.653279,225.249422 480.328198,226.082322 C504.096113,227.127953 529.024229,242.779975 554.417146,272.605712 C587.336961,311.276049 592.030012,366.278068 568.361182,436.086589 C564.370738,447.855352 559.792987,459.247327 555.013461,469.943416 C545.250684,470.503241 535.539582,471.752089 525.952578,473.680647 C523.290392,469.827642 520.283196,466.225176 516.968223,462.917854 L518.769778,449.384137 C520.017747,439.876492 518.078921,430.223149 513.25702,421.936311 L493.513779,388.131766 C491.906318,385.318118 488.913152,383.584626 485.67441,383.591595 C482.435667,383.598564 479.449979,385.344921 477.854625,388.165461 C476.259271,390.986001 476.299869,394.446477 477.960954,397.22876 L497.7096,431.040516 C500.515357,435.863055 501.643774,441.480544 500.91817,447.013438 L500.505613,450.108868 C498.341458,448.793137 496.097816,447.613032 493.787615,446.575355 C490.8269,445.311986 487.417558,445.72521 484.843855,447.65937 C482.270151,449.59353 480.923093,452.754781 481.310104,455.952309 C481.697116,459.149838 483.7594,461.897865 486.720115,463.161233 C492.063551,465.735641 497.007574,469.068568 501.399185,473.056873 L501.516286,473.159634 C503.359488,474.812193 505.104001,476.57177 506.740795,478.429256 C497.257569,481.20679 487.942963,484.53133 478.843716,488.386192 C475.858145,489.624578 473.764362,492.368631 473.356963,495.576977 C472.949563,498.785323 474.290993,501.966192 476.872176,503.912438 C479.45336,505.858685 482.878657,506.271991 485.848162,504.995507 C495.849608,500.748418 506.13284,497.19921 516.624126,494.373333 C518.079447,498.006859 519.127749,501.790636 519.749824,505.655336 C506.373331,506.529369 493.095077,508.537696 480.057964,511.658703 C476.944709,512.475079 474.503169,514.891502 473.653049,517.997731 C472.80293,521.10396 473.673384,524.428084 475.93652,526.717937 C478.199656,529.007791 481.51165,529.915491 484.624906,529.099116 C496.184315,526.402042 507.938947,524.624927 519.778649,523.784423 C519.16774,527.786462 518.141304,531.713811 516.716005,535.502707 C504.293629,534.354566 491.774044,534.8565 479.483268,536.995436 C474.611889,538.00554 471.481134,542.776181 472.490533,547.650962 C473.499931,552.525743 478.267244,555.658683 483.138623,554.64858 C490.766255,553.371974 498.501271,552.852645 506.230955,553.098161 C488.377648,573.771858 458.971734,580.058012 434.235413,568.488775 C421.417054,562.183112 409.570343,554.067495 399.05825,544.390575 L399.05825,531.567166 C404.633551,530.193298 409.469707,526.731418 412.569913,521.895075 C414.510611,518.751276 415.670737,515.188106 415.953233,511.503662 C433.248161,505.679374 447.04567,498.401418 457.345761,489.669794 C457.504297,489.547203 457.653826,489.417401 457.801554,489.283992 C466.191947,482.397968 472.610971,473.411777 476.406212,463.238754 C485.774298,436.930306 471.750994,413.077288 467.229091,406.392458 C460.451641,396.372424 457.367379,375.7843 456.751247,368.690231 C456.505792,365.458407 454.545377,362.607256 451.616798,361.22289 C448.68822,359.838524 445.242395,360.134097 442.59197,361.997013 C439.941544,363.859929 438.494609,367.003352 438.802355,370.229833 C439.065382,373.310841 441.684843,400.792921 452.314017,416.497224 C454.677658,419.992878 466.135547,438.385176 459.439167,457.188514 C458.103181,460.850954 456.226123,464.292301 453.870561,467.397844 C449.190634,460.781113 442.504189,455.85002 434.802903,453.335903 C420.581428,448.868533 403.862998,453.283621 385.034946,466.417113 C370.838693,453.146608 357.226144,447.611972 344.499959,449.982671 C335.961888,451.813034 328.393332,456.718547 323.232602,463.766979 C321.941209,461.618978 320.868128,459.346903 320.029438,456.984796 C313.493396,438.255373 324.882827,419.978456 327.235658,416.506238 C337.864832,400.801935 340.48069,373.319855 340.74732,370.238848 C341.13981,365.298856 337.473767,360.968222 332.539864,360.54352 C327.605961,360.118818 323.254731,363.759338 322.798428,368.693837 C322.184097,375.7843 319.099835,396.379635 312.320584,406.401472 C307.831109,413.039429 293.888875,436.735602 303.031766,462.928671 C310.365897,483.949469 330.442425,500.181996 362.744306,511.224226 C362.823065,515.136339 364.036039,518.941273 366.23572,522.176314 C369.339799,526.737431 374.331908,530.07624 381.051708,532.212573 L381.051708,544.904376 C370.146064,554.195389 358.147125,562.118535 345.321468,568.497789 C320.759424,579.987606 291.566862,573.876787 273.66642,553.498385 C283.735306,552.673696 293.866772,553.064106 303.842466,554.6612 C308.706371,555.646991 313.450837,552.510315 314.452804,547.646463 C315.454771,542.782611 312.33676,538.023981 307.479806,537.00445 C292.820339,534.490561 277.862311,534.241279 263.127323,536.265297 C261.49468,532.100971 260.346146,527.762531 259.704369,523.335523 C274.062299,523.926562 288.333712,525.857946 302.332763,529.104524 C307.148424,530.36902 312.07665,527.487506 313.340264,522.668482 C314.603877,517.849458 311.724374,512.917791 306.908713,511.653295 C291.47483,507.982949 275.718959,505.83336 259.866509,505.235281 C260.583379,500.929937 261.829919,496.729916 263.577712,492.730971 C276.422366,495.72209 288.98316,499.823877 301.118515,504.990099 C305.70185,506.926171 310.98578,504.777546 312.920502,500.191011 C314.855223,495.604475 312.708098,490.316856 308.124762,488.380783 C297.123993,483.709634 285.805817,479.825633 274.255528,476.758048 C275.365286,475.58622 276.48225,474.500927 277.592008,473.489549 C277.952704,473.215558 278.291797,472.9142 278.606284,472.588142 C282.88644,468.791853 287.680873,465.619431 292.847576,463.164839 C297.424444,461.21184 299.552615,455.915746 297.600979,451.335682 C295.649343,446.755618 290.356944,444.625961 285.780076,446.57896 C283.470465,447.618527 281.226901,448.799192 279.062077,450.114276 L278.649521,447.020649 C277.923784,441.487173 279.052196,435.869071 281.858091,431.045924 L301.606736,397.234168 C303.267822,394.451886 303.30842,390.991409 301.713065,388.170869 C300.117711,385.35033 297.132023,383.603973 293.893281,383.597003 C290.654538,383.590034 287.661373,385.323526 286.053912,388.137174 L266.305266,421.94893 C261.483365,430.235769 259.544539,439.889112 260.792508,449.396757 L262.594063,462.930473 C259.630187,465.890193 256.91113,469.085643 254.463645,472.485382 C244.533949,470.800957 234.492343,469.861479 224.422716,469.674796 C219.686428,459.061637 215.155517,447.765211 211.201104,436.101012 C187.523267,366.29249 192.216317,311.28326 225.136132,272.612923 L225.136132,272.612923 Z" id="Shape"></path>
                <path d="M452.977998,358.823339 C453.491314,358.912555 454.011353,358.957731 454.532406,358.958371 C457.960832,358.942437 461.08351,356.988675 462.589689,353.917178 C466.172964,356.319097 470.109458,358.14986 474.257676,359.343662 C478.030628,360.433348 481.938105,360.990296 485.866085,360.998253 C492.187008,361.060397 498.413135,359.463406 503.9196,356.367558 C516.364179,349.126246 523.75259,335.597092 523.101459,321.243048 C524.8021,321.640942 525.809486,321.938012 525.914196,321.963218 C530.654239,323.354875 535.635333,320.687265 537.090133,315.977979 C538.544933,311.268693 535.932704,306.268124 531.229151,304.758348 C529.78487,304.311842 495.483193,294.009805 470.036764,309.554682 C456.931718,317.562977 448.719174,330.63587 445.626607,348.407875 C445.215329,350.761394 445.758984,353.181431 447.137838,355.134994 C448.516692,357.088556 450.617651,358.415414 452.977998,358.823339 L452.977998,358.823339 Z M479.411954,324.950125 C487.07206,320.247412 496.353372,318.931301 504.605633,318.999717 C506.303792,327.58071 502.411881,336.300287 494.882011,340.784871 C490.042908,343.24863 484.422576,343.701742 479.249472,342.045169 C475.270411,340.953735 471.67388,338.78076 468.86148,335.768884 C471.422372,331.344469 475.048438,327.626197 479.411954,324.950125 Z" id="Shape"></path>
                <path d="M255.098799,321.958532 C255.151132,321.944127 256.17253,321.641619 257.917568,321.238275 C257.266711,335.594043 264.652006,349.124821 277.091337,356.367002 C282.595479,359.463222 288.81898,361.060404 295.137236,360.998253 C299.064139,360.990108 302.970538,360.433098 306.742554,359.343463 C310.888322,358.149152 314.822506,356.318188 318.403815,353.916328 C319.909359,356.988193 323.03072,358.94219 326.4577,358.958126 C326.978533,358.957486 327.498353,358.912305 328.011452,358.823077 C330.369322,358.415028 332.468163,357.089066 333.846239,355.136897 C335.224316,353.184728 335.76874,350.766268 335.359742,348.413565 C332.26848,330.639427 324.0594,317.564965 310.959881,309.555709 C285.527795,294.008965 251.244194,304.31224 249.784281,304.758799 C245.065953,306.255436 242.437569,311.266249 243.894213,315.987764 C245.350858,320.709279 250.348376,323.377692 255.093385,321.967535 L255.098799,321.958532 Z M276.401983,318.985672 C284.650764,318.917247 293.928161,320.233517 301.585036,324.936794 C305.946712,327.613187 309.571248,331.331906 312.13106,335.756852 C309.319847,338.769089 305.724833,340.942326 301.747449,342.033891 C294.991585,344.359484 287.502222,342.817966 282.22013,338.014629 C276.938038,333.211292 274.706589,325.913067 276.401983,318.985672 L276.401983,318.985672 Z" id="Shape"></path>
                <path d="M330.490258,523 C334.782535,523.000909 338.47806,519.970405 339.317757,515.761036 C340.157453,511.551667 337.907585,507.335144 333.943499,505.68903 C329.979412,504.042915 325.40454,505.425417 323.015505,508.991413 C320.62647,512.557408 321.088278,517.314273 324.118626,520.354135 C325.81115,522.040833 328.100806,522.991629 330.490258,523 L330.490258,523 Z" id="Path"></path>
                <path d="M330.519475,550 C334.810324,549.986983 338.495199,546.946444 339.322714,542.736092 C340.150229,538.52574 337.890197,534.316752 333.923454,532.680737 C329.95671,531.044722 325.386668,532.436764 323.005533,536.006352 C320.624398,539.57594 321.094522,544.330137 324.128667,547.364222 C325.828224,549.050876 328.125055,549.998164 330.519475,550 Z" id="Path"></path>
                <path d="M353.492537,539 C358.4631,539 362.492537,534.970563 362.492537,530 C362.492537,525.029437 358.4631,521 353.492537,521 C348.521975,521 344.492537,525.029437 344.492537,530 C344.493974,532.385342 345.445504,534.671863 347.136737,536.354 C348.825813,538.036193 351.108723,538.986598 353.492537,539 L353.492537,539 Z" id="Path"></path>
                <path d="M457.494818,505 C453.200149,504.999088 449.503264,508.03289 448.666076,512.245197 C447.828887,516.457503 450.084707,520.67441 454.053327,522.315833 C458.021946,523.957256 462.597375,522.565756 464.980169,518.992713 C467.362962,515.419669 466.889074,510.660833 463.848449,507.627865 C462.158093,505.951148 459.875698,505.007149 457.494818,505 L457.494818,505 Z" id="Path"></path>
                <path d="M457.526936,532 C453.230353,531.983822 449.521553,535.007102 448.671379,539.218795 C447.821205,543.430488 450.066813,547.655744 454.033251,549.307502 C457.999688,550.95926 462.580519,549.576763 464.970969,546.006492 C467.361419,542.436222 466.894673,537.674105 463.856512,534.635913 C462.174371,532.960608 459.900965,532.013886 457.526936,532 Z" id="Path"></path>
                <path d="M435.494818,521 C431.200149,520.999088 427.503264,524.03289 426.666076,528.245197 C425.828887,532.457503 428.084707,536.67441 432.053327,538.315833 C436.021946,539.957256 440.597375,538.565756 442.980169,534.992713 C445.362962,531.419669 444.889074,526.660833 441.848449,523.627865 C440.161847,521.94551 437.877024,521.000506 435.494818,521 L435.494818,521 Z" id="Path"></path>
                <path d="M5.22842537,459.469828 C6.09570895,463.641147 9.76862843,466.632625 14.0283802,466.637117 C14.6475213,466.63627 15.2649657,466.572343 15.871152,466.446325 C19.7322986,465.631971 22.6080192,462.38969 22.9561054,458.458272 L22.9974958,458.458272 C23.9206812,448.430908 28.2360783,437.939164 35.8375117,427.190031 C30.5449417,466.881906 30.023063,526.8355 47.3746304,597.021649 L47.3746304,597.045048 L47.3746304,597.068447 C48.6368388,601.805482 53.4575676,604.660669 58.2172768,603.490252 C62.9769861,602.319836 65.9245126,597.554429 64.8467698,592.772034 C62.3147583,582.417084 63.0597851,568.573886 66.9648776,552.011006 C66.9756751,555.060073 67.0356611,558.176338 67.1448358,561.3598 C68.6672819,604.709115 80.740676,668.465944 129.608319,726.018443 C132.587809,729.496212 137.70345,730.181265 141.492692,727.609919 C145.281934,725.038574 146.536091,720.031034 144.40628,715.976679 C139.631989,706.97707 139.135305,690.968566 142.885633,670.258666 C143.484894,674.153697 144.184931,678.162123 144.998342,682.249745 C154.318376,729.07471 174.511483,763.545012 203.376775,781.938412 C206.806003,784.132043 211.281998,783.741946 214.280204,780.988144 C217.278411,778.234341 218.047547,773.806871 216.153806,770.202922 L216.186198,770.186723 C210.880062,759.492708 207.100098,748.107049 204.956808,736.362593 C217.81122,767.094457 238.405634,801.042782 271.276795,827.652825 C274.706808,830.448378 279.66228,830.325773 282.949904,827.364018 C286.237528,824.402262 286.875764,819.485604 284.453332,815.782341 L284.487525,815.760742 C280.467259,809.563611 278.127803,801.31997 276.905887,792.413957 C286.413077,817.148482 301.399994,844.611688 324.499426,862.846695 C327.308495,865.064617 331.164665,865.406625 334.320106,863.717703 C337.475548,862.028782 339.330284,858.630064 339.043645,855.062034 C338.797592,851.599222 338.744722,848.125384 338.885282,844.656686 C348.567032,876.76369 363.795093,900.648652 384.234743,915.742796 C388.278538,918.752401 393.817381,918.752401 397.861176,915.742796 C417.951707,900.904241 433.492895,876.490102 443.100862,844.806079 C443.235552,848.22636 443.18028,851.651482 442.935301,855.065634 C442.648001,858.634333 444.502962,862.03394 447.659126,863.72304 C450.81529,865.412139 454.672288,865.069428 457.48132,862.850295 C480.580752,844.608088 495.567669,817.150282 505.074859,792.413957 C503.854743,801.323569 501.513487,809.565411 497.495021,815.764342 L497.529213,815.785941 C495.115884,819.489024 495.757225,824.3982 499.040838,827.356747 C502.32445,830.315293 507.27279,830.442438 510.703951,827.656425 C543.575112,801.046382 564.169525,767.094457 577.025738,736.362593 C574.88245,748.1082 571.102493,759.495049 565.796347,770.190323 L565.82874,770.206522 C563.942018,773.810309 564.713689,778.232571 567.709386,780.98407 C570.705084,783.735568 575.176108,784.128633 578.60577,781.942012 C607.47826,763.548611 627.665969,729.07831 636.984203,682.253345 C637.797614,678.165723 638.497651,674.153697 639.096912,670.264066 C642.84724,690.963166 642.350556,706.98247 637.576265,715.971279 C635.442497,720.026428 636.695916,725.037693 640.48741,727.610254 C644.278903,730.182814 649.397653,729.495121 652.376026,726.013043 C701.241869,668.460544 713.315263,604.698316 714.839509,561.3544 C714.951083,558.172138 715.011069,555.055874 715.019467,552.005606 C718.92276,568.564886 719.665987,582.411684 717.133976,592.766634 C716.056233,597.549029 719.00376,602.314436 723.763469,603.484852 C728.523178,604.655269 733.343907,601.800082 734.606115,597.063048 L734.606115,597.039649 L734.616913,596.987451 C751.961282,526.812101 751.439403,466.871106 746.148633,427.184631 C753.748267,437.937364 758.063664,448.423708 758.988649,458.452872 L759.030039,458.452872 C759.376773,462.384247 762.252133,465.626946 766.113193,466.440925 C766.719366,466.56703 767.336819,466.630958 767.955965,466.631717 C772.216392,466.628077 775.890297,463.636408 776.757719,459.464428 C793.412848,379.459706 762.55542,304.930345 739.544168,263.366552 L767.576253,280.90319 C770.809231,282.925751 774.965791,282.690382 777.94987,280.315775 C780.933948,277.941168 782.097418,273.943075 780.853567,270.337649 C754.460901,193.754578 721.238822,146.787419 697.304384,120.395166 C694.43945,87.0642148 679.578504,74.2847703 666.293991,69.6373723 C654.59671,65.5515499 641.819679,66.5595061 629.289191,70.3267423 C627.586787,69.6229729 625.900579,68.9480022 624.250362,68.332429 L662.16935,59.6730054 C665.984171,58.8013188 668.798362,55.563567 669.130739,51.6638646 C669.463117,47.7641621 667.237468,44.0966948 663.625211,42.5917478 C660.726085,41.3822004 607.732001,19.7795394 547.012313,26.3924519 L562.177388,16.6728744 C565.493131,14.5479998 567.042164,10.5134652 566.000645,6.71501546 C564.959125,2.91656567 561.569063,0.236823408 557.633444,0.100994692 C552.841158,-0.0501987366 439.613273,-3.39265346 389.989805,44.8452499 C340.459916,-3.39265346 229.107195,-0.0501987366 224.39409,0.115394066 C220.459434,0.253433258 217.071425,2.93395552 216.03129,6.73186715 C214.991155,10.5297788 216.54047,14.5629984 219.855545,16.6872738 L235.020621,26.4068513 C174.31173,19.7957387 121.306848,41.3876002 118.407722,42.6061472 C114.795525,44.1117196 112.570419,47.7797917 112.903629,51.6796091 C113.236838,55.5794265 116.05195,58.8166883 119.867183,59.6874048 L157.784371,68.3468284 C156.006384,69.0127994 154.185207,69.7471675 152.337037,70.5067345 C140.076486,66.6243032 127.484813,65.5461501 115.74794,69.6427721 C94.4390925,77.0836486 86.6325068,98.4163214 84.712353,120.562559 C60.8121075,146.854016 27.5756318,193.749178 1.13797601,270.341249 C-0.105875328,273.946675 1.0575948,277.944768 4.04167353,280.319375 C7.02575227,282.693982 11.1823123,282.929351 14.4152903,280.906789 L42.4365781,263.371952 C19.4271255,304.933945 -11.4285035,379.465106 5.22842537,459.469828 L5.22842537,459.469828 Z M697.110029,148.103162 C715.037463,170.981967 736.007989,204.440713 754.779427,251.641861 L716.876636,227.929692 C708.088974,216.721946 698.706259,205.993984 688.768968,195.792089 C692.849466,180.150875 695.63919,164.200993 697.110029,148.103162 L697.110029,148.103162 Z M660.357171,86.6394333 C686.663457,95.8190343 680.703242,149.780689 673.78565,181.27212 C670.186487,177.967464 666.595721,174.797801 663.013354,171.763133 C673.909821,149.717692 670.353848,121.521917 653.934464,110.052816 C644.986943,103.814287 632.339482,103.083519 619.231329,108.058502 C609.469197,111.890689 600.749481,117.973812 593.781643,125.812931 C589.252096,123.552229 584.879112,121.493118 580.698684,119.646399 C600.889991,102.530943 636.615289,78.3435939 660.357171,86.6394333 L660.357171,86.6394333 Z M648.510524,160.063642 C636.334293,150.748813 623.553811,142.251936 610.253215,134.628947 C614.695043,130.421648 619.908892,127.113786 625.607247,124.887771 C632.960338,122.096092 639.697972,122.072693 643.631858,124.817574 C651.204498,130.098544 653.878677,145.957655 648.510524,160.063642 L648.510524,160.063642 Z M121.675763,86.6394333 C145.399649,78.3471937 179.825648,103.294109 198.969599,120.710152 C195.744749,122.171689 192.417922,123.75082 188.989119,125.447546 C181.886892,117.566864 172.988844,111.515986 163.049947,107.808313 C149.774432,102.993522 137.036993,103.814287 128.103869,110.045616 C111.907633,121.350925 108.830348,148.724135 120.056139,170.882972 C116.097059,174.217627 112.122383,177.716075 108.13211,181.378315 C101.230714,149.849086 95.3154888,95.8424333 121.675763,86.6394333 Z M172.445563,134.250964 C159.278422,141.760241 146.618156,150.125652 134.546371,159.293275 C128.865092,145.235886 131.069579,129.931152 138.397476,124.817574 C142.410544,122.016896 149.333535,121.989897 156.916972,124.738377 C162.662678,126.86849 167.937483,130.099757 172.445563,134.250964 L172.445563,134.250964 Z M27.2553062,251.641861 C46.0087479,204.483911 66.9684768,171.095362 84.867117,148.279554 C86.3251239,164.355037 89.0936901,180.284524 93.1451932,195.909084 C83.2514449,206.075247 73.9084662,216.763452 65.1562979,227.927892 L27.2553062,251.641861 Z M78.3634285,240.235757 C135.602726,166.77015 200.08534,137.460224 233.43339,126.5167 C238.056503,124.896202 240.534008,119.874381 239.007234,115.218702 C237.48046,110.563023 232.510491,107.984435 227.825893,109.417443 C224.543456,110.497396 220.976685,111.739342 217.159772,113.17208 C204.761193,100.997737 190.981803,90.315257 176.102314,81.3422635 C183.52824,79.2075651 191.170364,77.9137132 198.885019,77.4850312 C203.454694,77.4570471 207.277683,74.00755 207.774502,69.4640179 C208.271321,64.9204857 205.28417,60.7260427 200.828567,59.7108037 L157.105928,49.7230379 C189.075499,42.4513539 240.077446,36.9867914 286.026167,59.0214337 C290.313623,61.0777406 295.460625,59.4425738 297.775873,55.2886333 C300.091122,51.1346929 298.775323,45.8960453 294.772134,43.3297158 L256.687585,18.9263764 C292.151943,21.2662747 348.450059,29.5243158 377.439522,57.7560887 C384.378235,64.5806431 395.503225,64.5902492 402.453709,57.7776878 C431.671718,29.4127207 489.341116,21.2014776 525.38134,18.8993776 L487.259,43.3297158 C483.251654,45.8946922 481.933296,51.1366131 484.250258,55.2927716 C486.567219,59.4489301 491.718636,61.0827394 496.006767,59.0214337 C541.957288,36.9849915 592.955635,42.4513539 624.925205,49.7230379 L581.206166,59.7072039 C576.754857,60.7210371 573.768097,64.9083133 574.258068,69.4480642 C574.748039,73.9878151 578.559435,77.4410961 583.12452,77.4814313 C590.408028,77.8745705 597.627803,79.0531502 604.658316,80.9966786 C589.336144,89.7511575 575.043407,100.195919 562.047818,112.135325 C559.290859,111.134569 556.66347,110.223808 554.21064,109.419243 C549.526042,107.986235 544.556073,110.564823 543.029298,115.220502 C541.502524,119.876181 543.98003,124.898002 548.603143,126.5185 C581.951193,137.456625 646.435606,166.77195 703.673104,240.239357 C704.968803,241.951083 766.424521,324.274104 763.347236,420.434925 C760.453162,416.012227 757.28636,411.774198 753.865239,407.745476 C739.879655,391.070004 727.609334,373.027681 717.240151,353.891817 C699.98574,322.201709 674.094716,296.059256 642.575503,278.502094 C639.765584,276.939803 636.335796,276.995545 633.578109,278.648321 C630.820421,280.301098 629.153792,283.299813 629.206025,286.51488 C629.258257,289.729947 631.021416,292.67292 633.831336,294.23521 C662.374194,310.138816 685.819509,333.816374 701.443422,362.517042 C707.335363,373.318263 713.78229,383.807238 720.758334,393.941876 C722.484132,399.14545 729.076,421.205291 730.954764,459.639021 C732.087162,483.910831 731.184212,508.234866 728.255391,532.35586 C722.316956,513.696285 714.728734,495.602788 705.580661,478.28981 C703.371991,474.246142 698.466449,472.524195 694.215636,474.30045 C689.964824,476.076705 687.742017,480.777323 689.065899,485.19071 C689.161277,485.507496 698.508305,517.306714 696.858088,561.384998 C695.121492,607.723984 682.492027,649.563166 659.324211,686.243771 C657.238496,654.403155 643.980977,619.922054 641.868268,614.587086 C640.244052,610.49595 635.899396,608.180277 631.598354,609.11329 C627.297312,610.046303 624.302201,613.954171 624.5185,618.350722 C625.002951,638.739856 623.248654,659.120586 619.287116,679.126881 C615.374825,698.616434 608.023534,722.474397 594.263931,742.041346 C603.13227,700.137368 598.223011,655.981687 597.936878,653.578791 C597.409049,649.042555 593.567944,645.620888 589.001954,645.619537 L588.821996,645.619537 C584.18794,645.707754 580.379016,649.302375 580.022041,653.924376 C579.955457,654.808138 573.376186,731.911386 523.459387,790.198253 C526.246939,762.603652 520.409095,734.494274 520.040181,732.780749 C519.128242,728.50165 515.271505,725.498519 510.900221,725.663722 C506.528938,725.828925 502.909783,729.114592 502.323299,733.45032 C502.227921,734.152289 493.427966,796.182993 460.53881,834.90291 C458.946565,818.075091 456.38571,801.353075 452.868992,784.820087 C451.900828,780.370471 447.762149,777.345363 443.22948,777.774222 C438.696811,778.203082 435.198697,781.950747 435.081926,786.503014 C435.06213,787.28778 432.657889,863.134683 391.060557,898.204359 C349.556802,863.20128 346.956406,787.27158 346.934812,786.492214 C346.816873,781.938735 343.316007,778.191354 338.781841,777.765149 C334.247675,777.338944 330.110044,780.368318 329.145946,784.820087 C325.632216,801.353471 323.072579,818.075384 321.479727,834.90291 C288.588771,796.182993 279.788816,734.154089 279.695238,733.453919 C279.112056,729.115591 275.492494,725.826165 271.11911,725.660011 C266.745726,725.493857 262.887103,728.49917 261.976556,732.780749 C261.61664,734.488874 255.775197,762.598253 258.557351,790.198253 C208.640552,731.911386 202.06308,654.808138 201.994696,653.933376 C201.643429,649.310306 197.838037,645.710705 193.203448,645.617548 C188.568859,645.524392 184.621946,648.96817 184.085258,653.573391 C183.806323,655.976287 178.891665,700.131968 187.758205,742.035946 C173.998603,722.468997 166.647311,698.612834 162.744018,679.121481 C158.78375,659.116829 157.029463,638.738028 157.512634,618.350722 C157.732016,613.952997 154.737758,610.04226 150.435699,609.107688 C146.13364,608.173115 141.787194,610.489169 140.162866,614.581686 C138.044758,619.916654 124.787239,654.397756 122.706923,686.238372 C99.5409068,649.557766 86.9096423,607.718585 85.1730459,561.379599 C83.5228295,517.301315 92.8716568,485.502097 92.9634354,485.19431 C94.294784,480.779678 92.0746931,476.072776 87.8216903,474.293094 C83.5686875,472.513412 78.6588494,474.236773 76.4504731,478.28441 C67.3027068,495.599012 59.7139218,513.693621 53.7739432,532.35406 C50.8451893,508.233061 49.9422399,483.909031 51.0745706,459.637221 C52.9551335,421.198092 59.5470015,399.136451 61.2728004,393.940076 C68.2479697,383.805489 74.6948697,373.317159 80.5877116,362.517042 C96.2130234,333.817268 119.658805,310.140494 148.201598,294.23701 C152.545357,291.821919 154.109221,286.342122 151.694586,281.997542 C149.279951,277.652962 143.801189,276.088802 139.45743,278.503894 C107.938582,296.061933 82.0467588,322.20331 64.7891832,353.891817 C54.4210369,373.025778 42.1519207,391.066294 28.1676942,407.740077 C24.7500043,411.765368 21.5856434,415.999139 18.6928962,420.416926 C15.6695988,324.391099 77.0785271,241.936683 78.3580298,240.235757 L78.3634285,240.235757 Z" id="Shape"></path>
            </g>
        </g>
    </g>
</svg>