<?xml version="1.0" encoding="UTF-8"?>
<svg width="1024px" height="1024px" viewBox="0 0 1024 1024" version="1.1" xmlns="http://www.w3.org/2000/svg" xmlns:xlink="http://www.w3.org/1999/xlink">
    <title>Group 2</title>
    <g id="Page-1" stroke="none" stroke-width="1" fill="none" fill-rule="evenodd">
        <g id="Group-2">
            <rect id="Rectangle" fill="#FFFFFF" x="0" y="0" width="1024" height="1024"></rect>
            <g id="dalmatian-copy" transform="translate(398.356661, 519.565080)" fill="#000000" fill-rule="nonzero">
                <path d="M123.642002,156.490632 L121.403393,161.514437 C116.404182,162.146351 111.205284,162.146351 106.207825,161.514437 L103.967464,156.488882 C98.1747557,143.498759 85.1932738,135.873779 71.630244,136.558207 C71.4323075,135.457171 71.334215,134.343882 71.334215,133.221841 C71.334215,114.444715 104.51573,112.72927 111.207035,112.57698 C112.948176,112.533219 114.628009,112.531469 116.446222,112.57698 C123.097239,112.72927 156.278754,114.444715 156.278754,133.221841 C156.278754,134.343882 156.17891,135.455421 155.982726,136.558207 C142.403931,135.863277 129.432959,143.50226 123.642002,156.490632 Z M189.553107,212.652215 L157.019703,208.794213 C146.269823,207.519882 137.141973,200.852401 132.442294,191.550486 C133.764791,191.273914 135.087287,191.004344 136.392266,190.670007 C141.051657,189.472696 144.908791,186.2151 146.867136,181.82321 L152.444391,169.310961 C152.892814,168.3062 154.022629,167.807321 155.063109,168.153911 L159.832853,169.727569 C166.347242,171.877127 173.504485,169.570028 177.533282,164.021088 C184.254365,154.766435 187.808463,144.11667 187.808463,133.221841 C187.808463,102.532872 160.081588,82.0648079 117.211693,81.0775516 C114.934548,81.0197866 112.64514,81.0197866 110.441564,81.0775516 C67.5313818,82.0648079 39.804506,102.532872 39.804506,133.221841 C39.804506,144.114919 43.3568532,154.764684 50.0779362,164.021088 C54.108484,169.570028 61.2657279,171.877127 67.7801162,169.727569 L72.5481088,168.153911 C73.5973475,167.810822 74.7201554,168.307951 75.168578,169.310961 L80.7458332,181.82146 C82.7041784,186.211599 86.5613128,189.470946 91.2189515,190.668257 C92.5221795,191.002593 93.8464273,191.273914 95.1689234,191.548735 C90.4709968,200.85065 81.343146,207.518132 70.5932669,208.792462 L38.0598621,212.650464 C24.9364965,214.203117 12.529556,207.563643 6.43206064,196.217197 L7.36218706,196.217197 C16.0696417,196.217197 23.1270416,189.164616 23.1270416,180.463107 C23.1270416,171.761597 16.0696417,164.709016 7.36218706,164.709016 L4.20921616,164.709016 C2.74833964,164.709016 1.34176428,164.922572 5.68434189e-14,165.293668 C0.159400196,155.785199 2.15102682,146.31349 5.99239637,137.359915 L45.6427571,44.9061598 C55.0193423,23.0447335 74.4871859,6.91254483 97.7210782,1.75395541 C108.246746,-0.584651803 119.369727,-0.584651803 129.897146,1.75395541 C153.131038,6.91254483 172.598882,23.0447335 181.973716,44.9061598 L212.347335,115.729549 C203.948171,116.077889 197.242853,122.971179 197.242853,131.450381 C197.242853,140.15189 204.300253,147.204471 213.007708,147.204471 L216.160678,147.204471 C219.171766,147.204471 221.976158,146.344998 224.368913,144.881618 C229.103624,160.297871 228.697241,176.790653 223.06043,192.10538 L223.048168,192.138638 C217.950865,205.951475 204.177637,214.381664 189.553107,212.652215 Z" id="Shape"></path>
            </g>
            <g id="cigar" transform="translate(352.000000, 731.000000) rotate(20.000000) translate(-352.000000, -731.000000) translate(273.000000, 652.000000)" fill="#000000" fill-rule="nonzero">
                <path d="M2.63623464,100.291167 C3.19719693,101.374139 4.3277665,102 5.50252145,102 C5.98375794,102 6.47235866,101.894917 6.93214283,101.673007 C8.51353141,100.909611 9.1545397,99.0530436 8.3640055,97.5262512 C5.74554107,92.4717651 5.74554107,86.4366084 8.3640055,81.3821223 C11.8786648,74.5968594 11.8786648,66.4946608 8.3640055,59.7093979 C7.57315112,58.1826056 5.64948589,57.5635438 4.06841749,58.32694 C2.48670873,59.0903362 1.84570044,60.9469033 2.63623464,62.4733865 C5.25437888,67.5278727 5.25437888,73.5633384 2.63623464,78.6175155 C-0.878744879,85.4033965 -0.878744879,93.5055951 2.63623464,100.291167 L2.63623464,100.291167 Z" id="XMLID_37_"></path>
                <path d="M19.6358119,62.2908583 C20.1967864,63.3741389 21.3273807,64 22.5021613,64 C22.9834083,64 23.4716995,63.8949171 23.9314937,63.6730069 C25.513237,62.9096109 26.1542593,61.0530441 25.3637078,59.5265611 C22.7455064,54.4720758 22.7455064,48.4366111 25.3637078,43.3824349 C28.8787641,36.5968641 28.8787641,28.4946669 25.3637078,21.7090961 C24.5728362,20.1826131 22.6491289,19.5635515 21.0677058,20.3269475 C19.4862827,21.0903436 18.8452604,22.9469103 19.6358119,24.4737024 C22.2543335,29.5281877 22.2543335,35.5633433 19.6358119,40.6178286 C16.121396,47.4033994 16.121396,55.5055965 19.6358119,62.2908583 Z" id="XMLID_38_"></path>
                <path d="M150.10037,7.89993828 C145.005945,2.80551345 138.232718,0 131.028372,0 C123.823717,0 117.05049,2.80551345 111.956065,7.89993828 L105.407192,14.4488109 C104.202096,15.6539072 104.202096,17.6079838 105.407192,18.8133887 C106.612597,20.0181763 108.566057,20.0181763 109.77177,18.8133887 L116.320643,12.2645161 C124.430431,4.15503609 137.626004,4.15472749 145.735793,12.2645161 C153.845581,20.3743047 153.845581,33.5698772 145.735793,41.6796658 L107.903794,79.5113558 L97.9929959,69.6002492 C97.6226718,67.0823541 96.5613847,64.8770743 94.8421552,63.1578448 C93.0868191,61.4025087 90.8571596,60.3594292 88.3833948,59.9906481 L78.4886442,50.0962061 L90.1341018,38.4507485 C91.3391981,37.2456522 91.3391981,35.2915755 90.1341018,34.0861707 C88.928697,32.881383 86.9752375,32.881383 85.769524,34.0861707 L2.98203459,116.873969 C-0.994011532,120.850323 -0.994011532,127.319885 2.98203459,131.295931 L26.7040689,155.017965 C28.6920919,157.005988 31.3034939,158 33.9148958,158 C36.5266063,158 39.1380082,157.005988 41.1260313,155.017965 L150.100062,46.043935 C155.194487,40.9495101 158,34.1762829 158,26.971628 C158,19.7675904 155.194487,12.9940545 150.10037,7.89993828 Z M58.6491492,128.766001 L29.2339995,99.3508508 L54.0089886,74.5758617 L63.9034306,84.4703038 C64.2725202,86.9440686 65.3152911,89.1740367 67.0706272,90.9293728 C68.8250375,92.6837831 71.0543884,93.7240851 73.5269188,94.0934834 L83.4244469,103.991011 L58.6491492,128.766001 Z M45.8421083,141.573041 L16.4269587,112.157892 L24.8694217,103.715429 L54.2845714,133.130887 L45.8421083,141.573041 Z M81.3972312,93.2346401 C84.7116316,92.1002141 88.0479429,90.0282509 90.9947967,87.0817057 C93.8450577,84.2314447 95.9648544,80.8886528 97.1289064,77.4650067 L103.539833,83.8759336 L87.7890247,99.6267422 L81.3972312,93.2346401 Z M91.7592073,73.7268938 C91.1583565,76.7817588 89.2888372,80.0588182 86.6302189,82.7171279 C81.4691358,87.8788282 74.511055,89.6400278 71.4355136,86.564795 C68.3599722,83.4895622 70.1220976,76.5308642 75.2831807,71.3700897 C78.7179365,67.9353339 82.9482718,66.0062541 86.3009391,66.0062541 C87.9859136,66.0062541 89.4493109,66.4938475 90.477886,67.5224226 C92.2967944,69.3410224 92.06133,72.1906661 91.7592073,73.7268938 Z M74.124375,54.4604753 L80.5167857,60.852886 C77.2020766,61.9870035 73.8654567,64.0586581 70.9186029,67.0055119 C67.9717491,69.9523657 65.9000945,73.2889856 64.7659771,76.603386 L58.3735664,70.2109753 L74.124375,54.4604753 Z M36.7617621,150.653696 C35.1925138,152.222944 32.6385121,152.223562 31.0686467,150.653696 L7.34661239,126.931662 C5.77674693,125.362105 5.77674693,122.808103 7.34661239,121.238547 L12.0626895,116.522469 L41.4778392,145.937928 L36.7617621,150.653696 Z" id="XMLID_41_"></path>
                <path d="M98,29 C98.789,29 99.56,28.679 100.121,28.118 C100.6787,27.5603 101,26.789 101,26 C101,25.2077 100.679,24.434 100.121,23.876 C99.56,23.318 98.789,23 98,23 C97.208,23 96.437,23.318 95.876,23.876 C95.318,24.434 95,25.2077 95,26 C95,26.789 95.318,27.56 95.876,28.118 C96.437,28.679 97.211,29 98,29 Z" id="XMLID_67_"></path>
            </g>
            <g id="deer" transform="translate(252.778461, 33.564072)" fill="#000000" fill-rule="nonzero">
                <path d="M190.718539,162.260241 C196.083539,156.159241 199.036539,148.309241 199.021596,140.184241 L199.021596,97.0822413 C199.017539,87.7242413 195.103539,78.7932413 188.226539,72.4462413 L186.519539,70.8422413 C177.585539,62.4882413 166.466539,52.0692413 131.965539,47.2392413 C72.6335389,38.8762413 37.5865389,56.8052413 18.6005389,73.3002413 C1.75653892,87.9522413 -5.77846108,104.532241 -5.77846108,114.474241 C-5.77846108,144.264241 20.3425389,150.689241 43.3825389,156.364241 C55.0575389,159.560241 65.9695389,165.074241 75.4675389,172.577241 C88.5785389,183.626241 105.079539,189.849241 122.221539,190.207241 C148.047539,191.390241 173.091539,181.173241 190.718539,162.260241 Z M177.918539,150.971241 C163.509539,166.181241 143.141539,174.288241 122.221539,173.141241 C108.584539,172.754241 95.5085389,167.624241 85.2465389,158.634241 C74.0275389,149.906241 61.1825389,143.501241 47.4605389,139.792241 C19.8725389,133.034241 11.2875389,128.622241 11.2875389,114.474241 C13.9755389,103.180241 20.5215389,93.1782413 29.7965389,86.1952413 C50.4265389,69.4452413 76.5145389,60.9032413 103.055539,62.2082413 C111.927539,62.2352413 120.787539,62.8862413 129.568539,64.1542413 C158.726539,68.2502413 167.285539,76.2542413 174.837539,83.3202413 L176.680539,85.0272413 C180.045539,88.1332413 181.957539,92.5052413 181.955581,97.0852413 L181.955581,116.166241 C166.468539,122.242241 148.865539,118.817241 136.787539,107.377241 C109.941539,80.5312413 72.1135389,77.7322413 50.1405389,88.7062413 C45.9225389,90.8132413 44.2105389,95.9402413 46.3175389,100.158241 C48.4245389,104.376241 53.5515389,106.088241 57.7695389,103.981241 C81.1645389,95.1882413 107.551539,101.282241 124.722539,119.443241 C135.257539,130.276241 149.779539,136.307241 164.888539,136.126241 C170.647539,136.092241 176.379539,135.346241 181.955581,133.907241 L181.955581,140.188241 C181.964539,144.149241 180.529539,147.978241 177.919539,150.957241 L177.919539,150.971241 L177.918539,150.971241 Z" id="Shape_147_" transform="translate(96.621596, 117.707670) rotate(75.000000) translate(-96.621596, -117.707670) "></path>
                <path d="M501.841539,73.3002413 C482.854539,56.8052413 447.791539,38.8772413 388.501539,47.2142413 C354.001539,52.0612413 342.882539,62.4632413 333.947539,70.8172413 L332.240539,72.4212413 C325.347539,78.7692413 321.423539,87.7112413 321.420482,97.0822413 L321.420482,140.184241 C321.405539,148.308241 324.358539,156.159241 329.723539,162.260241 C347.350539,181.172241 372.394539,191.390241 398.220539,190.207241 C415.358539,189.858241 431.859539,183.648241 444.974539,172.611241 C454.472539,165.107241 465.384539,159.593241 477.059539,156.398241 C500.099539,150.723241 526.220539,144.298241 526.220539,114.508241 C526.220539,104.532241 518.686539,87.9522413 501.841539,73.3002413 Z M472.982539,139.775241 C459.259539,143.488241 446.414539,149.899241 435.196539,158.634241 C424.934539,167.623241 411.858539,172.753241 398.221539,173.141241 C377.298539,174.284241 356.930539,166.171241 342.524539,150.954241 C339.913539,147.975241 338.478539,144.146241 338.488487,140.185241 L338.488487,133.887241 C344.064539,135.327241 349.796539,136.072241 355.555539,136.106241 C370.643539,136.267241 385.138539,130.237241 395.662539,119.423241 C412.854539,101.253241 439.274539,95.1812413 462.674539,104.020241 C466.892539,106.127241 472.019539,104.415241 474.126539,100.197241 C476.233539,95.9792413 474.521539,90.8522413 470.303539,88.7452413 C448.330539,77.7712413 410.493539,80.5702413 383.656539,107.416241 C371.569539,118.841241 353.967539,122.250241 338.488487,116.163241 L338.488487,97.0822413 C338.481539,92.4972413 340.393539,88.1182413 343.763539,85.0072413 L345.606539,83.3002413 C353.158539,76.2342413 361.717539,68.2302413 390.875539,64.1342413 C399.657539,62.8722413 408.516539,62.2272413 417.388539,62.2052413 C443.932539,60.9092413 470.020539,69.4602413 490.647539,86.2182413 C499.917539,93.1952413 506.463539,103.187241 509.156539,114.472241 C509.156539,128.620241 500.571539,133.032241 472.983539,139.782241 L472.983539,139.775241 L472.982539,139.775241 Z" id="Shape_146_" transform="translate(423.820482, 117.700827) rotate(-75.000000) translate(-423.820482, -117.700827) "></path>
            </g>
            <g id="mascara" transform="translate(537.000000, 270.000000)" fill="#000000" fill-rule="nonzero">
                <path d="M174.486997,52.7060431 C175.444855,50.8534377 175.03338,48.5876453 173.486418,47.1864018 L122.832386,1.19687438 C121.681158,0.150433273 120.080232,-0.24254379 118.573742,0.148187259 L12.6607675,27.7419037 C11.0823257,28.1528455 9.83890967,29.3632145 9.39145959,30.9283853 L0.181635681,63.1210545 C-0.220843985,64.5110702 0.0534717711,66.0111192 0.925886731,67.1653483 C1.79605334,68.3218233 3.16313658,69.002235 4.61116553,69 C5.02039082,68.9977435 5.42736833,68.9438495 5.82310295,68.838307 L106.047392,41.538762 L169.421144,55.1020796 C171.45603,55.5264946 173.526891,54.5474212 174.486997,52.7060431 L174.486997,52.7060431 Z M20.750842,55.23906 L11.2824414,57.8147432 L17.5287529,35.9966646 L26.6643767,33.6141018 L20.750842,55.23906 Z M40.638755,49.8227159 L31.0714213,52.4298369 L36.9467312,30.9396131 L46.4690957,28.4559992 L40.638755,49.8227159 Z M60.5334137,44.3996342 L50.9548377,47.0112461 L56.7469535,25.7702827 L66.3165361,23.2866683 L60.5334137,44.3996342 Z M82.7327773,38.3567719 L70.8517447,41.5769373 L76.6033874,20.5919694 L88.4214622,17.5132758 L82.7327773,38.3567719 Z M101.240116,33.2974749 L93.0488593,35.527338 L98.69932,14.8320507 L106.881583,12.7032386 L101.240116,33.2974749 Z M119.246041,34.9345043 L110.836681,33.1357929 L117.168435,10.017522 L118.486051,9.67394807 L124.633429,15.2564656 L119.246041,34.9345043 Z M136.642625,38.6599256 L128.266992,36.8657052 L132.282799,22.1998064 L139.370046,28.6401367 L136.642625,38.6599256 Z M145.659079,40.5911265 L147.041902,35.5879689 L154.671035,42.513345 L145.659079,40.5911265 Z" id="Shape"></path>
            </g>
            <g id="mascara-copy" transform="translate(404.500000, 304.500003) scale(-1, 1) translate(-404.500000, -304.500003) translate(317.000000, 270.000000)" fill="#000000" fill-rule="nonzero">
                <path d="M174.486997,52.7060431 C175.444855,50.8534377 175.03338,48.5876453 173.486418,47.1864018 L122.832386,1.19687438 C121.681158,0.150433273 120.080232,-0.24254379 118.573742,0.148187259 L12.6607675,27.7419037 C11.0823257,28.1528455 9.83890967,29.3632145 9.39145959,30.9283853 L0.181635681,63.1210545 C-0.220843985,64.5110702 0.0534717711,66.0111192 0.925886731,67.1653483 C1.79605334,68.3218233 3.16313658,69.002235 4.61116553,69 C5.02039082,68.9977435 5.42736833,68.9438495 5.82310295,68.838307 L106.047392,41.538762 L169.421144,55.1020796 C171.45603,55.5264946 173.526891,54.5474212 174.486997,52.7060431 L174.486997,52.7060431 Z M20.750842,55.23906 L11.2824414,57.8147432 L17.5287529,35.9966646 L26.6643767,33.6141018 L20.750842,55.23906 Z M40.638755,49.8227159 L31.0714213,52.4298369 L36.9467312,30.9396131 L46.4690957,28.4559992 L40.638755,49.8227159 Z M60.5334137,44.3996342 L50.9548377,47.0112461 L56.7469535,25.7702827 L66.3165361,23.2866683 L60.5334137,44.3996342 Z M82.7327773,38.3567719 L70.8517447,41.5769373 L76.6033874,20.5919694 L88.4214622,17.5132758 L82.7327773,38.3567719 Z M101.240116,33.2974749 L93.0488593,35.527338 L98.69932,14.8320507 L106.881583,12.7032386 L101.240116,33.2974749 Z M119.246041,34.9345043 L110.836681,33.1357929 L117.168435,10.017522 L118.486051,9.67394807 L124.633429,15.2564656 L119.246041,34.9345043 Z M136.642625,38.6599256 L128.266992,36.8657052 L132.282799,22.1998064 L139.370046,28.6401367 L136.642625,38.6599256 Z M145.659079,40.5911265 L147.041902,35.5879689 L154.671035,42.513345 L145.659079,40.5911265 Z" id="Shape"></path>
            </g>
        </g>
    </g>
</svg>