<?xml version="1.0" encoding="UTF-8"?>
<svg width="19px" height="18px" viewBox="0 0 19 18" version="1.1" xmlns="http://www.w3.org/2000/svg" xmlns:xlink="http://www.w3.org/1999/xlink">
    <title>send</title>
    <g id="New" stroke="none" stroke-width="1" fill="none" fill-rule="evenodd">
        <g id="InternaVideo_login" transform="translate(-1272.000000, -501.000000)" fill="#E8662D" fill-rule="nonzero">
            <g id="Dark-UI" transform="translate(955.000000, 104.000000)">
                <g id="Input" transform="translate(20.000000, 381.000000)">
                    <g id="send" transform="translate(297.000000, 16.000000)">
                        <path d="M18.6064627,8.37252092 L0.9640278,0.0642416026 C0.683105953,-0.0659214401 0.34789969,0.0116225002 0.152475796,0.258101453 C-0.0443052079,0.504580406 -0.0510907598,0.854912851 0.136190472,1.10831537 L5.93783732,9.00118072 L0.136190472,16.8940461 C-0.0510907598,17.1474486 -0.0443052079,17.4991657 0.151118686,17.74426 C0.282758392,17.9118103 0.479539397,18.0018166 0.679034622,18.0018166 C0.775389458,18.0018166 0.871744295,17.9810459 0.96267069,17.9381198 L18.6051056,9.62984052 C18.8466712,9.51629404 19.0000247,9.2711998 19.0000247,9.00118072 C19.0000247,8.73116164 18.8466712,8.4860674 18.6064627,8.37252092 Z" id="Path"></path>
                    </g>
                </g>
            </g>
        </g>
    </g>
</svg>